<mxfile host="app.diagrams.net" agent="Mozilla/5.0 (Windows NT 10.0; Win64; x64) AppleWebKit/537.36 (KHTML, like Gecko) Chrome/133.0.0.0 Safari/537.36" version="26.0.16" pages="3">
  <diagram name="1 oldal" id="PVMn8dTXwI2IqrYhm-JF">
    <mxGraphModel dx="2260" dy="589" grid="1" gridSize="10" guides="1" tooltips="1" connect="1" arrows="1" fold="1" page="1" pageScale="1" pageWidth="827" pageHeight="1169" math="0" shadow="0">
      <root>
        <mxCell id="0" />
        <mxCell id="1" parent="0" />
        <mxCell id="FG8BIOksSfUQ8eZlH9Ch-3" value="&lt;i&gt;Controll.Player&lt;/i&gt;" style="swimlane;fontStyle=1;align=center;verticalAlign=top;childLayout=stackLayout;horizontal=1;startSize=26;horizontalStack=0;resizeParent=1;resizeParentMax=0;resizeLast=0;collapsible=1;marginBottom=0;whiteSpace=wrap;html=1;" vertex="1" parent="1">
          <mxGeometry x="30" y="160" width="210" height="120" as="geometry" />
        </mxCell>
        <mxCell id="FG8BIOksSfUQ8eZlH9Ch-4" value="- score: int" style="text;strokeColor=none;fillColor=none;align=left;verticalAlign=top;spacingLeft=4;spacingRight=4;overflow=hidden;rotatable=0;points=[[0,0.5],[1,0.5]];portConstraint=eastwest;whiteSpace=wrap;html=1;" vertex="1" parent="FG8BIOksSfUQ8eZlH9Ch-3">
          <mxGeometry y="26" width="210" height="26" as="geometry" />
        </mxCell>
        <mxCell id="FG8BIOksSfUQ8eZlH9Ch-5" value="" style="line;strokeWidth=1;fillColor=none;align=left;verticalAlign=middle;spacingTop=-1;spacingLeft=3;spacingRight=3;rotatable=0;labelPosition=right;points=[];portConstraint=eastwest;strokeColor=inherit;" vertex="1" parent="FG8BIOksSfUQ8eZlH9Ch-3">
          <mxGeometry y="52" width="210" height="8" as="geometry" />
        </mxCell>
        <mxCell id="FG8BIOksSfUQ8eZlH9Ch-6" value="+ &lt;i&gt;executeRound(roundNumber: int)&lt;/i&gt;&lt;div&gt;&lt;i&gt;- selectAction(): int&lt;/i&gt;&lt;/div&gt;&lt;div&gt;&lt;i&gt;+ &lt;/i&gt;increaseScore()&lt;/div&gt;" style="text;strokeColor=none;fillColor=none;align=left;verticalAlign=top;spacingLeft=4;spacingRight=4;overflow=hidden;rotatable=0;points=[[0,0.5],[1,0.5]];portConstraint=eastwest;whiteSpace=wrap;html=1;" vertex="1" parent="FG8BIOksSfUQ8eZlH9Ch-3">
          <mxGeometry y="60" width="210" height="60" as="geometry" />
        </mxCell>
        <mxCell id="FG8BIOksSfUQ8eZlH9Ch-7" value="Game" style="swimlane;fontStyle=1;align=center;verticalAlign=top;childLayout=stackLayout;horizontal=1;startSize=26;horizontalStack=0;resizeParent=1;resizeParentMax=0;resizeLast=0;collapsible=1;marginBottom=0;whiteSpace=wrap;html=1;" vertex="1" parent="1">
          <mxGeometry x="30" y="10" width="160" height="110" as="geometry" />
        </mxCell>
        <mxCell id="FG8BIOksSfUQ8eZlH9Ch-8" value="-&amp;nbsp;&lt;span style=&quot;background-color: transparent; color: light-dark(rgb(0, 0, 0), rgb(255, 255, 255));&quot;&gt;round: int&lt;/span&gt;&lt;div&gt;+&amp;nbsp;map: List&amp;lt;Tekton.Tekton&amp;gt;&lt;/div&gt;" style="text;strokeColor=none;fillColor=none;align=left;verticalAlign=top;spacingLeft=4;spacingRight=4;overflow=hidden;rotatable=0;points=[[0,0.5],[1,0.5]];portConstraint=eastwest;whiteSpace=wrap;html=1;" vertex="1" parent="FG8BIOksSfUQ8eZlH9Ch-7">
          <mxGeometry y="26" width="160" height="44" as="geometry" />
        </mxCell>
        <mxCell id="FG8BIOksSfUQ8eZlH9Ch-9" value="" style="line;strokeWidth=1;fillColor=none;align=left;verticalAlign=middle;spacingTop=-1;spacingLeft=3;spacingRight=3;rotatable=0;labelPosition=right;points=[];portConstraint=eastwest;strokeColor=inherit;" vertex="1" parent="FG8BIOksSfUQ8eZlH9Ch-7">
          <mxGeometry y="70" width="160" height="8" as="geometry" />
        </mxCell>
        <mxCell id="FG8BIOksSfUQ8eZlH9Ch-10" value="+ gameLoop()" style="text;strokeColor=none;fillColor=none;align=left;verticalAlign=top;spacingLeft=4;spacingRight=4;overflow=hidden;rotatable=0;points=[[0,0.5],[1,0.5]];portConstraint=eastwest;whiteSpace=wrap;html=1;" vertex="1" parent="FG8BIOksSfUQ8eZlH9Ch-7">
          <mxGeometry y="78" width="160" height="32" as="geometry" />
        </mxCell>
        <mxCell id="FG8BIOksSfUQ8eZlH9Ch-11" value="Shroomer.Shroomer" style="swimlane;fontStyle=1;align=center;verticalAlign=top;childLayout=stackLayout;horizontal=1;startSize=26;horizontalStack=0;resizeParent=1;resizeParentMax=0;resizeLast=0;collapsible=1;marginBottom=0;whiteSpace=wrap;html=1;" vertex="1" parent="1">
          <mxGeometry x="120" y="360" width="250" height="160" as="geometry" />
        </mxCell>
        <mxCell id="FG8BIOksSfUQ8eZlH9Ch-12" value="" style="line;strokeWidth=1;fillColor=none;align=left;verticalAlign=middle;spacingTop=-1;spacingLeft=3;spacingRight=3;rotatable=0;labelPosition=right;points=[];portConstraint=eastwest;strokeColor=inherit;" vertex="1" parent="FG8BIOksSfUQ8eZlH9Ch-11">
          <mxGeometry y="26" width="250" height="8" as="geometry" />
        </mxCell>
        <mxCell id="FG8BIOksSfUQ8eZlH9Ch-13" value="- growHypa(from: Tekton.Tekton, to: Tekton.Tekton)&lt;div&gt;- throwSpore( with MUshroom, to: Tekton.Tekton)&lt;/div&gt;&lt;div&gt;+&amp;nbsp;&lt;/div&gt;&lt;div&gt;executeRound(roundNumber: int)&lt;/div&gt;&lt;div&gt;- selectAction(): int&lt;/div&gt;&lt;div&gt;+ mushroomGrown()&lt;/div&gt;&lt;div&gt;+ mushroomDied()&lt;/div&gt;" style="text;strokeColor=none;fillColor=none;align=left;verticalAlign=top;spacingLeft=4;spacingRight=4;overflow=hidden;rotatable=0;points=[[0,0.5],[1,0.5]];portConstraint=eastwest;whiteSpace=wrap;html=1;" vertex="1" parent="FG8BIOksSfUQ8eZlH9Ch-11">
          <mxGeometry y="34" width="250" height="126" as="geometry" />
        </mxCell>
        <mxCell id="FG8BIOksSfUQ8eZlH9Ch-14" value="Bugger" style="swimlane;fontStyle=1;align=center;verticalAlign=top;childLayout=stackLayout;horizontal=1;startSize=26;horizontalStack=0;resizeParent=1;resizeParentMax=0;resizeLast=0;collapsible=1;marginBottom=0;whiteSpace=wrap;html=1;" vertex="1" parent="1">
          <mxGeometry x="560" y="360" width="190" height="140" as="geometry" />
        </mxCell>
        <mxCell id="FG8BIOksSfUQ8eZlH9Ch-15" value="+ underEffectSince: int" style="text;strokeColor=none;fillColor=none;align=left;verticalAlign=top;spacingLeft=4;spacingRight=4;overflow=hidden;rotatable=0;points=[[0,0.5],[1,0.5]];portConstraint=eastwest;whiteSpace=wrap;html=1;" vertex="1" parent="FG8BIOksSfUQ8eZlH9Ch-14">
          <mxGeometry y="26" width="190" height="26" as="geometry" />
        </mxCell>
        <mxCell id="FG8BIOksSfUQ8eZlH9Ch-16" value="" style="line;strokeWidth=1;fillColor=none;align=left;verticalAlign=middle;spacingTop=-1;spacingLeft=3;spacingRight=3;rotatable=0;labelPosition=right;points=[];portConstraint=eastwest;strokeColor=inherit;" vertex="1" parent="FG8BIOksSfUQ8eZlH9Ch-14">
          <mxGeometry y="52" width="190" height="8" as="geometry" />
        </mxCell>
        <mxCell id="FG8BIOksSfUQ8eZlH9Ch-17" value="&lt;div&gt;- selectAction(): int&lt;/div&gt;+ executeRound(roundNumber: int)&lt;div&gt;+ setStrategy(s: Bug.Bug.Strategy)&lt;/div&gt;&lt;div&gt;&lt;br&gt;&lt;div&gt;&lt;br&gt;&lt;/div&gt;&lt;/div&gt;" style="text;strokeColor=none;fillColor=none;align=left;verticalAlign=top;spacingLeft=4;spacingRight=4;overflow=hidden;rotatable=0;points=[[0,0.5],[1,0.5]];portConstraint=eastwest;whiteSpace=wrap;html=1;" vertex="1" parent="FG8BIOksSfUQ8eZlH9Ch-14">
          <mxGeometry y="60" width="190" height="80" as="geometry" />
        </mxCell>
        <mxCell id="FG8BIOksSfUQ8eZlH9Ch-18" value="" style="swimlane;fontStyle=1;align=center;verticalAlign=top;childLayout=stackLayout;horizontal=1;startSize=0;horizontalStack=0;resizeParent=1;resizeParentMax=0;resizeLast=0;collapsible=1;marginBottom=0;whiteSpace=wrap;html=1;" vertex="1" parent="1">
          <mxGeometry x="254" y="680" width="160" height="190" as="geometry">
            <mxRectangle x="350" y="320" width="100" height="30" as="alternateBounds" />
          </mxGeometry>
        </mxCell>
        <mxCell id="OPrOjzVIBu2OuI2TAhG9-1" value="&lt;i&gt;Shroomer.Mushroom&lt;/i&gt;" style="swimlane;fontStyle=1;align=center;verticalAlign=top;childLayout=stackLayout;horizontal=1;startSize=26;horizontalStack=0;resizeParent=1;resizeParentMax=0;resizeLast=0;collapsible=1;marginBottom=0;whiteSpace=wrap;html=1;" vertex="1" parent="FG8BIOksSfUQ8eZlH9Ch-18">
          <mxGeometry width="160" height="190" as="geometry" />
        </mxCell>
        <mxCell id="OPrOjzVIBu2OuI2TAhG9-2" value="- age:int&lt;div&gt;- numberOfSpores: int&lt;/div&gt;&lt;div&gt;- sporesThrown: int&lt;/div&gt;" style="text;strokeColor=none;fillColor=none;align=left;verticalAlign=top;spacingLeft=4;spacingRight=4;overflow=hidden;rotatable=0;points=[[0,0.5],[1,0.5]];portConstraint=eastwest;whiteSpace=wrap;html=1;" vertex="1" parent="OPrOjzVIBu2OuI2TAhG9-1">
          <mxGeometry y="26" width="160" height="64" as="geometry" />
        </mxCell>
        <mxCell id="OPrOjzVIBu2OuI2TAhG9-3" value="" style="line;strokeWidth=1;fillColor=none;align=left;verticalAlign=middle;spacingTop=-1;spacingLeft=3;spacingRight=3;rotatable=0;labelPosition=right;points=[];portConstraint=eastwest;strokeColor=inherit;" vertex="1" parent="OPrOjzVIBu2OuI2TAhG9-1">
          <mxGeometry y="90" width="160" height="8" as="geometry" />
        </mxCell>
        <mxCell id="OPrOjzVIBu2OuI2TAhG9-4" value="&lt;i&gt;+ sporeThrown(to: Tekton.Tekton)&lt;/i&gt;&lt;div&gt;+ Shroomer.Mushroom(s: Shroomer.Shroomer, pos: Tekton.Tekton)&lt;/div&gt;&lt;div&gt;+ die()&lt;/div&gt;&lt;div&gt;+ age()&lt;/div&gt;" style="text;strokeColor=none;fillColor=none;align=left;verticalAlign=top;spacingLeft=4;spacingRight=4;overflow=hidden;rotatable=0;points=[[0,0.5],[1,0.5]];portConstraint=eastwest;whiteSpace=wrap;html=1;" vertex="1" parent="OPrOjzVIBu2OuI2TAhG9-1">
          <mxGeometry y="98" width="160" height="92" as="geometry" />
        </mxCell>
        <mxCell id="FG8BIOksSfUQ8eZlH9Ch-20" value="" style="swimlane;fontStyle=1;align=center;verticalAlign=top;childLayout=stackLayout;horizontal=1;startSize=0;horizontalStack=0;resizeParent=1;resizeParentMax=0;resizeLast=0;collapsible=1;marginBottom=0;whiteSpace=wrap;html=1;" vertex="1" parent="1">
          <mxGeometry x="650" y="80" width="160" height="110" as="geometry" />
        </mxCell>
        <mxCell id="oB7HETbNgXNL-HXYYyWf-1" value="&lt;span style=&quot;font-weight: normal;&quot;&gt;&amp;lt;&amp;lt;interface&amp;gt;&amp;gt;&lt;/span&gt;&lt;div&gt;&lt;i&gt;Bug.Bug.Strategy&lt;/i&gt;&lt;/div&gt;" style="swimlane;fontStyle=1;align=center;verticalAlign=top;childLayout=stackLayout;horizontal=1;startSize=40;horizontalStack=0;resizeParent=1;resizeParentMax=0;resizeLast=0;collapsible=1;marginBottom=0;whiteSpace=wrap;html=1;" vertex="1" parent="FG8BIOksSfUQ8eZlH9Ch-20">
          <mxGeometry width="160" height="110" as="geometry" />
        </mxCell>
        <mxCell id="oB7HETbNgXNL-HXYYyWf-2" value="" style="line;strokeWidth=1;fillColor=none;align=left;verticalAlign=middle;spacingTop=-1;spacingLeft=3;spacingRight=3;rotatable=0;labelPosition=right;points=[];portConstraint=eastwest;strokeColor=inherit;" vertex="1" parent="oB7HETbNgXNL-HXYYyWf-1">
          <mxGeometry y="40" width="160" height="8" as="geometry" />
        </mxCell>
        <mxCell id="oB7HETbNgXNL-HXYYyWf-3" value="&lt;i&gt;+ eat(s: Shroomer.Spore)&lt;/i&gt;&lt;div&gt;&lt;i&gt;+ bite(h: Shroomer.Hypa)&lt;/i&gt;&lt;/div&gt;&lt;div&gt;&lt;i&gt;+ move(t: Tekton.Tekton)&lt;/i&gt;&lt;/div&gt;&lt;div&gt;&lt;br&gt;&lt;/div&gt;" style="text;strokeColor=none;fillColor=none;align=left;verticalAlign=top;spacingLeft=4;spacingRight=4;overflow=hidden;rotatable=0;points=[[0,0.5],[1,0.5]];portConstraint=eastwest;whiteSpace=wrap;html=1;" vertex="1" parent="oB7HETbNgXNL-HXYYyWf-1">
          <mxGeometry y="48" width="160" height="62" as="geometry" />
        </mxCell>
        <mxCell id="FG8BIOksSfUQ8eZlH9Ch-22" style="edgeStyle=orthogonalEdgeStyle;rounded=0;orthogonalLoop=1;jettySize=auto;html=1;entryX=0.137;entryY=1.015;entryDx=0;entryDy=0;entryPerimeter=0;" edge="1" parent="1" target="1kFGFJCWvxmLALMKL_oT-3">
          <mxGeometry relative="1" as="geometry">
            <mxPoint x="450" y="590" as="targetPoint" />
            <mxPoint x="440" y="900" as="sourcePoint" />
          </mxGeometry>
        </mxCell>
        <mxCell id="FG8BIOksSfUQ8eZlH9Ch-23" value="-stored" style="edgeLabel;html=1;align=center;verticalAlign=middle;resizable=0;points=[];" vertex="1" connectable="0" parent="FG8BIOksSfUQ8eZlH9Ch-22">
          <mxGeometry x="-0.8314" y="-5" relative="1" as="geometry">
            <mxPoint as="offset" />
          </mxGeometry>
        </mxCell>
        <mxCell id="FG8BIOksSfUQ8eZlH9Ch-24" value="" style="swimlane;fontStyle=1;align=center;verticalAlign=top;childLayout=stackLayout;horizontal=1;startSize=0;horizontalStack=0;resizeParent=1;resizeParentMax=0;resizeLast=0;collapsible=1;marginBottom=0;whiteSpace=wrap;html=1;" vertex="1" parent="1">
          <mxGeometry x="360" y="950" width="160" height="180" as="geometry">
            <mxRectangle x="350" y="320" width="100" height="30" as="alternateBounds" />
          </mxGeometry>
        </mxCell>
        <mxCell id="FG8BIOksSfUQ8eZlH9Ch-26" value="" style="swimlane;fontStyle=1;align=center;verticalAlign=top;childLayout=stackLayout;horizontal=1;startSize=0;horizontalStack=0;resizeParent=1;resizeParentMax=0;resizeLast=0;collapsible=1;marginBottom=0;whiteSpace=wrap;html=1;" vertex="1" parent="1">
          <mxGeometry x="430" y="551" width="190" height="100" as="geometry">
            <mxRectangle x="350" y="320" width="100" height="30" as="alternateBounds" />
          </mxGeometry>
        </mxCell>
        <mxCell id="1kFGFJCWvxmLALMKL_oT-1" value="&lt;i&gt;Shroomer.Spore&lt;/i&gt;" style="swimlane;fontStyle=1;align=center;verticalAlign=top;childLayout=stackLayout;horizontal=1;startSize=26;horizontalStack=0;resizeParent=1;resizeParentMax=0;resizeLast=0;collapsible=1;marginBottom=0;whiteSpace=wrap;html=1;" vertex="1" parent="FG8BIOksSfUQ8eZlH9Ch-26">
          <mxGeometry width="190" height="100" as="geometry" />
        </mxCell>
        <mxCell id="1kFGFJCWvxmLALMKL_oT-2" value="" style="line;strokeWidth=1;fillColor=none;align=left;verticalAlign=middle;spacingTop=-1;spacingLeft=3;spacingRight=3;rotatable=0;labelPosition=right;points=[];portConstraint=eastwest;strokeColor=inherit;" vertex="1" parent="1kFGFJCWvxmLALMKL_oT-1">
          <mxGeometry y="26" width="190" height="8" as="geometry" />
        </mxCell>
        <mxCell id="1kFGFJCWvxmLALMKL_oT-3" value="+&lt;i&gt;&amp;nbsp;haveEffect(chosenAction: int)&lt;/i&gt;&lt;div&gt;+ Shroomer.Spore(g: Gombasz)&lt;/div&gt;&lt;div&gt;+ beEaten(b: Bugger)&lt;/div&gt;" style="text;strokeColor=none;fillColor=none;align=left;verticalAlign=top;spacingLeft=4;spacingRight=4;overflow=hidden;rotatable=0;points=[[0,0.5],[1,0.5]];portConstraint=eastwest;whiteSpace=wrap;html=1;" vertex="1" parent="1kFGFJCWvxmLALMKL_oT-1">
          <mxGeometry y="34" width="190" height="66" as="geometry" />
        </mxCell>
        <mxCell id="FG8BIOksSfUQ8eZlH9Ch-28" value="Shroomer.Hypa" style="swimlane;fontStyle=1;align=center;verticalAlign=top;childLayout=stackLayout;horizontal=1;startSize=26;horizontalStack=0;resizeParent=1;resizeParentMax=0;resizeLast=0;collapsible=1;marginBottom=0;whiteSpace=wrap;html=1;" vertex="1" parent="1">
          <mxGeometry x="40" y="670" width="160" height="160" as="geometry" />
        </mxCell>
        <mxCell id="FG8BIOksSfUQ8eZlH9Ch-29" value="+ age: int&lt;div&gt;+ isDying: int&lt;/div&gt;" style="text;strokeColor=none;fillColor=none;align=left;verticalAlign=top;spacingLeft=4;spacingRight=4;overflow=hidden;rotatable=0;points=[[0,0.5],[1,0.5]];portConstraint=eastwest;whiteSpace=wrap;html=1;" vertex="1" parent="FG8BIOksSfUQ8eZlH9Ch-28">
          <mxGeometry y="26" width="160" height="44" as="geometry" />
        </mxCell>
        <mxCell id="FG8BIOksSfUQ8eZlH9Ch-30" value="" style="line;strokeWidth=1;fillColor=none;align=left;verticalAlign=middle;spacingTop=-1;spacingLeft=3;spacingRight=3;rotatable=0;labelPosition=right;points=[];portConstraint=eastwest;strokeColor=inherit;" vertex="1" parent="FG8BIOksSfUQ8eZlH9Ch-28">
          <mxGeometry y="70" width="160" height="8" as="geometry" />
        </mxCell>
        <mxCell id="FG8BIOksSfUQ8eZlH9Ch-31" value="+ die()&lt;div&gt;+ Shroomer.Hypa(end1: Tekton.Tekton, end2: Tekton.Tekton)&lt;/div&gt;&lt;div&gt;+Age()&lt;/div&gt;" style="text;strokeColor=none;fillColor=none;align=left;verticalAlign=top;spacingLeft=4;spacingRight=4;overflow=hidden;rotatable=0;points=[[0,0.5],[1,0.5]];portConstraint=eastwest;whiteSpace=wrap;html=1;" vertex="1" parent="FG8BIOksSfUQ8eZlH9Ch-28">
          <mxGeometry y="78" width="160" height="82" as="geometry" />
        </mxCell>
        <mxCell id="FG8BIOksSfUQ8eZlH9Ch-32" value="" style="endArrow=open;endFill=1;endSize=12;html=1;rounded=0;exitX=0.313;exitY=0.99;exitDx=0;exitDy=0;exitPerimeter=0;" edge="1" parent="1" source="FG8BIOksSfUQ8eZlH9Ch-10">
          <mxGeometry width="160" relative="1" as="geometry">
            <mxPoint x="190" y="140" as="sourcePoint" />
            <mxPoint x="80" y="160" as="targetPoint" />
          </mxGeometry>
        </mxCell>
        <mxCell id="FG8BIOksSfUQ8eZlH9Ch-33" value="4..*" style="edgeLabel;html=1;align=center;verticalAlign=middle;resizable=0;points=[];" vertex="1" connectable="0" parent="FG8BIOksSfUQ8eZlH9Ch-32">
          <mxGeometry x="-0.1341" y="-1" relative="1" as="geometry">
            <mxPoint x="-11" y="-1" as="offset" />
          </mxGeometry>
        </mxCell>
        <mxCell id="FG8BIOksSfUQ8eZlH9Ch-34" value="&amp;lt;&amp;lt;call&amp;gt;&amp;gt;" style="html=1;verticalAlign=bottom;endArrow=open;dashed=1;endSize=8;curved=0;rounded=0;" edge="1" parent="1">
          <mxGeometry x="0.4574" y="25" relative="1" as="geometry">
            <mxPoint x="120" y="120" as="sourcePoint" />
            <mxPoint x="120" y="160" as="targetPoint" />
            <mxPoint as="offset" />
          </mxGeometry>
        </mxCell>
        <mxCell id="FG8BIOksSfUQ8eZlH9Ch-35" value="" style="endArrow=block;endSize=16;endFill=0;html=1;rounded=0;exitX=0.483;exitY=-0.01;exitDx=0;exitDy=0;exitPerimeter=0;entryX=0.417;entryY=1.013;entryDx=0;entryDy=0;entryPerimeter=0;" edge="1" parent="1" source="FG8BIOksSfUQ8eZlH9Ch-11" target="FG8BIOksSfUQ8eZlH9Ch-6">
          <mxGeometry width="160" relative="1" as="geometry">
            <mxPoint x="100" y="260" as="sourcePoint" />
            <mxPoint x="260" y="260" as="targetPoint" />
            <Array as="points">
              <mxPoint x="241" y="330" />
              <mxPoint x="118" y="330" />
            </Array>
          </mxGeometry>
        </mxCell>
        <mxCell id="FG8BIOksSfUQ8eZlH9Ch-36" value="" style="endArrow=none;html=1;rounded=0;entryX=0.102;entryY=-0.017;entryDx=0;entryDy=0;entryPerimeter=0;" edge="1" parent="1" target="FG8BIOksSfUQ8eZlH9Ch-14">
          <mxGeometry width="50" height="50" relative="1" as="geometry">
            <mxPoint x="240" y="330" as="sourcePoint" />
            <mxPoint x="380" y="260" as="targetPoint" />
            <Array as="points">
              <mxPoint x="580" y="330" />
            </Array>
          </mxGeometry>
        </mxCell>
        <mxCell id="FG8BIOksSfUQ8eZlH9Ch-41" value="&amp;lt;&amp;lt;call&amp;gt;&amp;gt;" style="html=1;verticalAlign=bottom;endArrow=open;dashed=1;endSize=8;curved=0;rounded=0;exitX=0.428;exitY=1.009;exitDx=0;exitDy=0;exitPerimeter=0;" edge="1" parent="1" source="FG8BIOksSfUQ8eZlH9Ch-17">
          <mxGeometry relative="1" as="geometry">
            <mxPoint x="514" y="880" as="sourcePoint" />
            <mxPoint x="495" y="900" as="targetPoint" />
            <Array as="points">
              <mxPoint x="641" y="800" />
              <mxPoint x="495" y="800" />
            </Array>
          </mxGeometry>
        </mxCell>
        <mxCell id="FG8BIOksSfUQ8eZlH9Ch-42" value="&amp;lt;&amp;lt;call&amp;gt;&amp;gt;" style="html=1;verticalAlign=bottom;endArrow=open;dashed=1;endSize=8;curved=0;rounded=0;exitX=0.3;exitY=0.97;exitDx=0;exitDy=0;exitPerimeter=0;" edge="1" parent="1" source="1kFGFJCWvxmLALMKL_oT-3">
          <mxGeometry relative="1" as="geometry">
            <mxPoint x="480.0799999999999" y="664" as="sourcePoint" />
            <mxPoint x="480" y="900" as="targetPoint" />
          </mxGeometry>
        </mxCell>
        <mxCell id="FG8BIOksSfUQ8eZlH9Ch-43" value="&amp;lt;&amp;lt;call&amp;gt;&amp;gt;" style="html=1;verticalAlign=bottom;endArrow=open;dashed=1;endSize=8;curved=0;rounded=0;exitX=0.25;exitY=1;exitDx=0;exitDy=0;" edge="1" parent="1" source="FG8BIOksSfUQ8eZlH9Ch-18">
          <mxGeometry relative="1" as="geometry">
            <mxPoint x="240" y="770" as="sourcePoint" />
            <mxPoint x="370" y="900" as="targetPoint" />
            <Array as="points">
              <mxPoint x="294" y="890" />
              <mxPoint x="370" y="890" />
            </Array>
          </mxGeometry>
        </mxCell>
        <mxCell id="FG8BIOksSfUQ8eZlH9Ch-44" style="edgeStyle=orthogonalEdgeStyle;rounded=0;orthogonalLoop=1;jettySize=auto;html=1;entryX=0.909;entryY=0.995;entryDx=0;entryDy=0;entryPerimeter=0;" edge="1" parent="1" target="OPrOjzVIBu2OuI2TAhG9-4">
          <mxGeometry relative="1" as="geometry">
            <mxPoint x="399" y="900" as="sourcePoint" />
            <mxPoint x="400.08000000000015" y="878.848" as="targetPoint" />
          </mxGeometry>
        </mxCell>
        <mxCell id="FG8BIOksSfUQ8eZlH9Ch-45" style="edgeStyle=orthogonalEdgeStyle;rounded=0;orthogonalLoop=1;jettySize=auto;html=1;" edge="1" parent="1" source="FG8BIOksSfUQ8eZlH9Ch-14">
          <mxGeometry relative="1" as="geometry">
            <Array as="points">
              <mxPoint x="700" y="830" />
              <mxPoint x="510" y="830" />
            </Array>
            <mxPoint x="510" y="900" as="targetPoint" />
          </mxGeometry>
        </mxCell>
        <mxCell id="FG8BIOksSfUQ8eZlH9Ch-46" value="-position" style="edgeLabel;html=1;align=center;verticalAlign=middle;resizable=0;points=[];" vertex="1" connectable="0" parent="FG8BIOksSfUQ8eZlH9Ch-45">
          <mxGeometry x="0.3259" relative="1" as="geometry">
            <mxPoint x="4" y="10" as="offset" />
          </mxGeometry>
        </mxCell>
        <mxCell id="FG8BIOksSfUQ8eZlH9Ch-47" value="&amp;lt;&amp;lt;call&amp;gt;&amp;gt;" style="html=1;verticalAlign=bottom;endArrow=open;dashed=1;endSize=8;curved=0;rounded=0;entryX=0.431;entryY=0.98;entryDx=0;entryDy=0;entryPerimeter=0;exitX=0;exitY=0.176;exitDx=0;exitDy=0;exitPerimeter=0;" edge="1" parent="1" source="k42B-ygskFCItDhpjXDD-4" target="FG8BIOksSfUQ8eZlH9Ch-31">
          <mxGeometry relative="1" as="geometry">
            <mxPoint x="544" y="910" as="sourcePoint" />
            <mxPoint x="464" y="910" as="targetPoint" />
            <Array as="points">
              <mxPoint x="110" y="991" />
            </Array>
          </mxGeometry>
        </mxCell>
        <mxCell id="FG8BIOksSfUQ8eZlH9Ch-48" value="" style="endArrow=open;endFill=1;endSize=12;html=1;rounded=0;" edge="1" parent="1">
          <mxGeometry width="160" relative="1" as="geometry">
            <mxPoint x="357" y="960" as="sourcePoint" />
            <mxPoint x="160" y="829" as="targetPoint" />
            <Array as="points">
              <mxPoint x="160" y="960" />
            </Array>
          </mxGeometry>
        </mxCell>
        <mxCell id="FG8BIOksSfUQ8eZlH9Ch-49" value="0..*" style="edgeLabel;html=1;align=center;verticalAlign=middle;resizable=0;points=[];" vertex="1" connectable="0" parent="FG8BIOksSfUQ8eZlH9Ch-48">
          <mxGeometry x="0.9385" y="1" relative="1" as="geometry">
            <mxPoint x="11" y="10" as="offset" />
          </mxGeometry>
        </mxCell>
        <mxCell id="FG8BIOksSfUQ8eZlH9Ch-50" value="" style="endArrow=open;endFill=1;endSize=12;html=1;rounded=0;exitX=0.251;exitY=1.02;exitDx=0;exitDy=0;exitPerimeter=0;entryX=0;entryY=0.353;entryDx=0;entryDy=0;entryPerimeter=0;" edge="1" parent="1" source="FG8BIOksSfUQ8eZlH9Ch-31" target="k42B-ygskFCItDhpjXDD-4">
          <mxGeometry width="160" relative="1" as="geometry">
            <mxPoint x="180" y="890" as="sourcePoint" />
            <mxPoint x="340" y="890" as="targetPoint" />
            <Array as="points">
              <mxPoint x="80" y="1020" />
            </Array>
          </mxGeometry>
        </mxCell>
        <mxCell id="FG8BIOksSfUQ8eZlH9Ch-51" value="2" style="edgeLabel;html=1;align=center;verticalAlign=middle;resizable=0;points=[];" vertex="1" connectable="0" parent="FG8BIOksSfUQ8eZlH9Ch-50">
          <mxGeometry x="0.9496" y="-3" relative="1" as="geometry">
            <mxPoint x="-15" y="5" as="offset" />
          </mxGeometry>
        </mxCell>
        <mxCell id="FG8BIOksSfUQ8eZlH9Ch-52" value="" style="endArrow=block;dashed=1;endFill=0;endSize=12;html=1;rounded=0;exitX=-0.015;exitY=0.66;exitDx=0;exitDy=0;exitPerimeter=0;entryX=0.061;entryY=1.003;entryDx=0;entryDy=0;entryPerimeter=0;" edge="1" parent="1" source="FG8BIOksSfUQ8eZlH9Ch-13" target="k42B-ygskFCItDhpjXDD-4">
          <mxGeometry width="160" relative="1" as="geometry">
            <mxPoint x="180" y="890" as="sourcePoint" />
            <mxPoint x="373.75999999999976" y="1186.8" as="targetPoint" />
            <Array as="points">
              <mxPoint x="20" y="477" />
              <mxPoint x="10" y="1150" />
              <mxPoint x="370" y="1150" />
            </Array>
          </mxGeometry>
        </mxCell>
        <mxCell id="FG8BIOksSfUQ8eZlH9Ch-53" value="&amp;lt;&amp;lt;call&amp;gt;&amp;gt;" style="html=1;verticalAlign=bottom;endArrow=open;dashed=1;endSize=8;curved=0;rounded=0;entryX=0.943;entryY=0.01;entryDx=0;entryDy=0;entryPerimeter=0;exitX=0.286;exitY=1.01;exitDx=0;exitDy=0;exitPerimeter=0;" edge="1" parent="1" source="FG8BIOksSfUQ8eZlH9Ch-13" target="FG8BIOksSfUQ8eZlH9Ch-28">
          <mxGeometry relative="1" as="geometry">
            <mxPoint x="554" y="920" as="sourcePoint" />
            <mxPoint x="474" y="920" as="targetPoint" />
          </mxGeometry>
        </mxCell>
        <mxCell id="FG8BIOksSfUQ8eZlH9Ch-54" value="" style="endArrow=open;endFill=1;endSize=12;html=1;rounded=0;entryX=0.75;entryY=0;entryDx=0;entryDy=0;" edge="1" parent="1" target="FG8BIOksSfUQ8eZlH9Ch-28">
          <mxGeometry width="160" relative="1" as="geometry">
            <mxPoint x="160" y="522" as="sourcePoint" />
            <mxPoint x="350" y="650" as="targetPoint" />
          </mxGeometry>
        </mxCell>
        <mxCell id="FG8BIOksSfUQ8eZlH9Ch-55" value="" style="endArrow=open;endFill=1;endSize=12;html=1;rounded=0;entryX=0.014;entryY=0.997;entryDx=0;entryDy=0;entryPerimeter=0;" edge="1" parent="1" target="FG8BIOksSfUQ8eZlH9Ch-13">
          <mxGeometry width="160" relative="1" as="geometry">
            <mxPoint x="124" y="670" as="sourcePoint" />
            <mxPoint x="350" y="650" as="targetPoint" />
          </mxGeometry>
        </mxCell>
        <mxCell id="FG8BIOksSfUQ8eZlH9Ch-56" value="0..*" style="edgeLabel;html=1;align=center;verticalAlign=middle;resizable=0;points=[];" vertex="1" connectable="0" parent="FG8BIOksSfUQ8eZlH9Ch-55">
          <mxGeometry x="-0.7234" y="-1" relative="1" as="geometry">
            <mxPoint x="-15" y="11" as="offset" />
          </mxGeometry>
        </mxCell>
        <mxCell id="FG8BIOksSfUQ8eZlH9Ch-57" value="+belongs" style="edgeLabel;html=1;align=center;verticalAlign=middle;resizable=0;points=[];" vertex="1" connectable="0" parent="FG8BIOksSfUQ8eZlH9Ch-55">
          <mxGeometry x="0.4413" y="4" relative="1" as="geometry">
            <mxPoint as="offset" />
          </mxGeometry>
        </mxCell>
        <mxCell id="FG8BIOksSfUQ8eZlH9Ch-58" value="" style="endArrow=open;endFill=1;endSize=12;html=1;rounded=0;exitX=0.75;exitY=1.003;exitDx=0;exitDy=0;exitPerimeter=0;" edge="1" parent="1" source="FG8BIOksSfUQ8eZlH9Ch-13">
          <mxGeometry width="160" relative="1" as="geometry">
            <mxPoint x="190" y="450" as="sourcePoint" />
            <mxPoint x="308" y="680" as="targetPoint" />
          </mxGeometry>
        </mxCell>
        <mxCell id="FG8BIOksSfUQ8eZlH9Ch-59" value="" style="endArrow=open;endFill=1;endSize=12;html=1;rounded=0;exitX=0.153;exitY=-0.003;exitDx=0;exitDy=0;exitPerimeter=0;entryX=0.638;entryY=1.003;entryDx=0;entryDy=0;entryPerimeter=0;" edge="1" parent="1" source="OPrOjzVIBu2OuI2TAhG9-1" target="FG8BIOksSfUQ8eZlH9Ch-13">
          <mxGeometry width="160" relative="1" as="geometry">
            <mxPoint x="190" y="450" as="sourcePoint" />
            <mxPoint x="350" y="450" as="targetPoint" />
          </mxGeometry>
        </mxCell>
        <mxCell id="FG8BIOksSfUQ8eZlH9Ch-60" value="&amp;lt;&amp;lt;call&amp;gt;&amp;gt;" style="html=1;verticalAlign=bottom;endArrow=open;dashed=1;endSize=8;curved=0;rounded=0;exitX=0.853;exitY=1.003;exitDx=0;exitDy=0;exitPerimeter=0;" edge="1" parent="1" source="FG8BIOksSfUQ8eZlH9Ch-13">
          <mxGeometry relative="1" as="geometry">
            <mxPoint x="564" y="930" as="sourcePoint" />
            <mxPoint x="334" y="680" as="targetPoint" />
          </mxGeometry>
        </mxCell>
        <mxCell id="FG8BIOksSfUQ8eZlH9Ch-61" value="" style="endArrow=open;endSize=12;dashed=1;html=1;rounded=0;" edge="1" parent="1">
          <mxGeometry width="160" relative="1" as="geometry">
            <mxPoint x="360" y="680" as="sourcePoint" />
            <mxPoint x="360" y="520" as="targetPoint" />
          </mxGeometry>
        </mxCell>
        <mxCell id="lsZvrhM5--hz4AZz40UB-1" value="&amp;lt;&amp;lt;instantlate&amp;gt;&amp;gt;" style="edgeLabel;html=1;align=center;verticalAlign=middle;resizable=0;points=[];" vertex="1" connectable="0" parent="FG8BIOksSfUQ8eZlH9Ch-61">
          <mxGeometry x="-0.2639" y="-1" relative="1" as="geometry">
            <mxPoint as="offset" />
          </mxGeometry>
        </mxCell>
        <mxCell id="FG8BIOksSfUQ8eZlH9Ch-62" style="edgeStyle=orthogonalEdgeStyle;rounded=0;orthogonalLoop=1;jettySize=auto;html=1;exitX=0;exitY=0.5;exitDx=0;exitDy=0;entryX=0.998;entryY=0.07;entryDx=0;entryDy=0;entryPerimeter=0;" edge="1" parent="1" source="FG8BIOksSfUQ8eZlH9Ch-26" target="FG8BIOksSfUQ8eZlH9Ch-13">
          <mxGeometry relative="1" as="geometry" />
        </mxCell>
        <mxCell id="FG8BIOksSfUQ8eZlH9Ch-63" value="+belongs" style="edgeLabel;html=1;align=center;verticalAlign=middle;resizable=0;points=[];" vertex="1" connectable="0" parent="FG8BIOksSfUQ8eZlH9Ch-62">
          <mxGeometry x="0.0828" relative="1" as="geometry">
            <mxPoint as="offset" />
          </mxGeometry>
        </mxCell>
        <mxCell id="FG8BIOksSfUQ8eZlH9Ch-64" value="&amp;lt;&amp;lt;call&amp;gt;&amp;gt;" style="html=1;verticalAlign=bottom;endArrow=open;dashed=1;endSize=8;curved=0;rounded=0;entryX=-0.017;entryY=0.057;entryDx=0;entryDy=0;entryPerimeter=0;" edge="1" parent="1" target="FG8BIOksSfUQ8eZlH9Ch-14">
          <mxGeometry relative="1" as="geometry">
            <mxPoint x="440" y="550" as="sourcePoint" />
            <mxPoint x="494" y="940" as="targetPoint" />
            <Array as="points">
              <mxPoint x="440" y="370" />
            </Array>
          </mxGeometry>
        </mxCell>
        <mxCell id="FG8BIOksSfUQ8eZlH9Ch-65" style="edgeStyle=orthogonalEdgeStyle;rounded=0;orthogonalLoop=1;jettySize=auto;html=1;exitX=0;exitY=0.5;exitDx=0;exitDy=0;" edge="1" parent="1" source="FG8BIOksSfUQ8eZlH9Ch-15">
          <mxGeometry relative="1" as="geometry">
            <mxPoint x="460" y="550" as="targetPoint" />
          </mxGeometry>
        </mxCell>
        <mxCell id="FG8BIOksSfUQ8eZlH9Ch-66" value="+eaten" style="edgeLabel;html=1;align=center;verticalAlign=middle;resizable=0;points=[];" vertex="1" connectable="0" parent="FG8BIOksSfUQ8eZlH9Ch-65">
          <mxGeometry x="0.0707" y="4" relative="1" as="geometry">
            <mxPoint as="offset" />
          </mxGeometry>
        </mxCell>
        <mxCell id="FG8BIOksSfUQ8eZlH9Ch-67" style="edgeStyle=orthogonalEdgeStyle;rounded=0;orthogonalLoop=1;jettySize=auto;html=1;exitX=0.5;exitY=0;exitDx=0;exitDy=0;entryX=-0.002;entryY=0.268;entryDx=0;entryDy=0;entryPerimeter=0;" edge="1" parent="1" source="FG8BIOksSfUQ8eZlH9Ch-26" target="FG8BIOksSfUQ8eZlH9Ch-17">
          <mxGeometry relative="1" as="geometry" />
        </mxCell>
        <mxCell id="FG8BIOksSfUQ8eZlH9Ch-68" value="-eatenBy" style="edgeLabel;html=1;align=center;verticalAlign=middle;resizable=0;points=[];" vertex="1" connectable="0" parent="FG8BIOksSfUQ8eZlH9Ch-67">
          <mxGeometry x="-0.0253" y="2" relative="1" as="geometry">
            <mxPoint as="offset" />
          </mxGeometry>
        </mxCell>
        <mxCell id="FG8BIOksSfUQ8eZlH9Ch-69" value="&amp;lt;&amp;lt;call&amp;gt;&amp;gt;" style="html=1;verticalAlign=bottom;endArrow=open;dashed=1;endSize=8;curved=0;rounded=0;entryX=1;entryY=0.5;entryDx=0;entryDy=0;exitX=0.934;exitY=0.992;exitDx=0;exitDy=0;exitPerimeter=0;" edge="1" parent="1" source="oB7HETbNgXNL-HXYYyWf-3" target="FG8BIOksSfUQ8eZlH9Ch-26">
          <mxGeometry relative="1" as="geometry">
            <mxPoint x="800" y="240" as="sourcePoint" />
            <mxPoint x="504" y="950" as="targetPoint" />
            <Array as="points">
              <mxPoint x="800" y="601" />
            </Array>
          </mxGeometry>
        </mxCell>
        <mxCell id="FG8BIOksSfUQ8eZlH9Ch-70" style="edgeStyle=orthogonalEdgeStyle;rounded=0;orthogonalLoop=1;jettySize=auto;html=1;exitX=0.5;exitY=0;exitDx=0;exitDy=0;entryX=0.122;entryY=1.008;entryDx=0;entryDy=0;entryPerimeter=0;" edge="1" parent="1" source="FG8BIOksSfUQ8eZlH9Ch-14" target="oB7HETbNgXNL-HXYYyWf-3">
          <mxGeometry relative="1" as="geometry">
            <mxPoint x="670" y="200" as="targetPoint" />
            <Array as="points">
              <mxPoint x="670" y="360" />
              <mxPoint x="670" y="281" />
              <mxPoint x="671" y="281" />
              <mxPoint x="671" y="200" />
              <mxPoint x="670" y="200" />
            </Array>
          </mxGeometry>
        </mxCell>
        <mxCell id="FG8BIOksSfUQ8eZlH9Ch-71" style="edgeStyle=orthogonalEdgeStyle;rounded=0;orthogonalLoop=1;jettySize=auto;html=1;exitX=0.25;exitY=1;exitDx=0;exitDy=0;entryX=0.666;entryY=0.011;entryDx=0;entryDy=0;entryPerimeter=0;" edge="1" parent="1" source="FG8BIOksSfUQ8eZlH9Ch-20" target="FG8BIOksSfUQ8eZlH9Ch-14">
          <mxGeometry relative="1" as="geometry">
            <Array as="points">
              <mxPoint x="687" y="190" />
              <mxPoint x="687" y="275" />
            </Array>
          </mxGeometry>
        </mxCell>
        <mxCell id="FG8BIOksSfUQ8eZlH9Ch-72" value="&amp;lt;&amp;lt;call&amp;gt;&amp;gt;" style="html=1;verticalAlign=bottom;endArrow=open;dashed=1;endSize=8;curved=0;rounded=0;entryX=0.75;entryY=0;entryDx=0;entryDy=0;exitX=0.372;exitY=1.016;exitDx=0;exitDy=0;exitPerimeter=0;" edge="1" parent="1" source="oB7HETbNgXNL-HXYYyWf-3">
          <mxGeometry relative="1" as="geometry">
            <mxPoint x="710.5" y="240" as="sourcePoint" />
            <mxPoint x="710" y="360" as="targetPoint" />
          </mxGeometry>
        </mxCell>
        <mxCell id="FG8BIOksSfUQ8eZlH9Ch-73" value="&amp;lt;&amp;lt;call&amp;gt;&amp;gt;" style="html=1;verticalAlign=bottom;endArrow=open;dashed=1;endSize=8;curved=0;rounded=0;exitX=0.947;exitY=0;exitDx=0;exitDy=0;exitPerimeter=0;entryX=0.563;entryY=1;entryDx=0;entryDy=0;entryPerimeter=0;" edge="1" parent="1" source="FG8BIOksSfUQ8eZlH9Ch-14" target="oB7HETbNgXNL-HXYYyWf-3">
          <mxGeometry relative="1" as="geometry">
            <mxPoint x="770" y="250" as="sourcePoint" />
            <mxPoint x="740" y="240" as="targetPoint" />
          </mxGeometry>
        </mxCell>
        <mxCell id="scsG5AHn41_8tty3_izh-1" value="MushroomFactoryRegistry" style="swimlane;fontStyle=1;align=center;verticalAlign=top;childLayout=stackLayout;horizontal=1;startSize=26;horizontalStack=0;resizeParent=1;resizeParentMax=0;resizeLast=0;collapsible=1;marginBottom=0;whiteSpace=wrap;html=1;" vertex="1" parent="1">
          <mxGeometry x="310" y="140" width="320" height="110" as="geometry" />
        </mxCell>
        <mxCell id="scsG5AHn41_8tty3_izh-2" value="+ registry: Map&amp;lt;String, Function&amp;gt;" style="text;strokeColor=none;fillColor=none;align=left;verticalAlign=top;spacingLeft=4;spacingRight=4;overflow=hidden;rotatable=0;points=[[0,0.5],[1,0.5]];portConstraint=eastwest;whiteSpace=wrap;html=1;" vertex="1" parent="scsG5AHn41_8tty3_izh-1">
          <mxGeometry y="26" width="320" height="26" as="geometry" />
        </mxCell>
        <mxCell id="scsG5AHn41_8tty3_izh-3" value="" style="line;strokeWidth=1;fillColor=none;align=left;verticalAlign=middle;spacingTop=-1;spacingLeft=3;spacingRight=3;rotatable=0;labelPosition=right;points=[];portConstraint=eastwest;strokeColor=inherit;" vertex="1" parent="scsG5AHn41_8tty3_izh-1">
          <mxGeometry y="52" width="320" height="8" as="geometry" />
        </mxCell>
        <mxCell id="scsG5AHn41_8tty3_izh-4" value="+ createMushroom(String, Shroomer.Shroomer, Tekton.Tekton): Shroomer.Mushroom&lt;div&gt;+ registerMushroom(type: String,co&lt;span style=&quot;background-color: transparent; color: light-dark(rgb(0, 0, 0), rgb(255, 255, 255));&quot;&gt;nstructor: Function )&lt;/span&gt;&lt;/div&gt;&lt;div&gt;&lt;br&gt;&lt;/div&gt;" style="text;strokeColor=none;fillColor=none;align=left;verticalAlign=top;spacingLeft=4;spacingRight=4;overflow=hidden;rotatable=0;points=[[0,0.5],[1,0.5]];portConstraint=eastwest;whiteSpace=wrap;html=1;" vertex="1" parent="scsG5AHn41_8tty3_izh-1">
          <mxGeometry y="60" width="320" height="50" as="geometry" />
        </mxCell>
        <mxCell id="scsG5AHn41_8tty3_izh-5" value="Call" style="endArrow=open;endSize=12;dashed=1;html=1;rounded=0;exitX=0.791;exitY=-0.015;exitDx=0;exitDy=0;exitPerimeter=0;entryX=0.026;entryY=0.966;entryDx=0;entryDy=0;entryPerimeter=0;" edge="1" parent="1" source="FG8BIOksSfUQ8eZlH9Ch-11" target="scsG5AHn41_8tty3_izh-4">
          <mxGeometry width="160" relative="1" as="geometry">
            <mxPoint x="230" y="320" as="sourcePoint" />
            <mxPoint x="390" y="320" as="targetPoint" />
          </mxGeometry>
        </mxCell>
        <mxCell id="scsG5AHn41_8tty3_izh-6" value="" style="endArrow=classic;html=1;rounded=0;exitX=0.961;exitY=-0.018;exitDx=0;exitDy=0;exitPerimeter=0;entryX=0.16;entryY=1.076;entryDx=0;entryDy=0;entryPerimeter=0;" edge="1" parent="1" source="FG8BIOksSfUQ8eZlH9Ch-11" target="scsG5AHn41_8tty3_izh-4">
          <mxGeometry width="50" height="50" relative="1" as="geometry">
            <mxPoint x="280" y="340" as="sourcePoint" />
            <mxPoint x="330" y="290" as="targetPoint" />
          </mxGeometry>
        </mxCell>
        <mxCell id="scsG5AHn41_8tty3_izh-7" value="+factory" style="edgeLabel;html=1;align=center;verticalAlign=middle;resizable=0;points=[];" vertex="1" connectable="0" parent="scsG5AHn41_8tty3_izh-6">
          <mxGeometry x="-0.1575" relative="1" as="geometry">
            <mxPoint as="offset" />
          </mxGeometry>
        </mxCell>
        <mxCell id="k42B-ygskFCItDhpjXDD-1" value="Tekton.Tekton" style="swimlane;fontStyle=1;align=center;verticalAlign=top;childLayout=stackLayout;horizontal=1;startSize=26;horizontalStack=0;resizeParent=1;resizeParentMax=0;resizeLast=0;collapsible=1;marginBottom=0;whiteSpace=wrap;html=1;" vertex="1" parent="1">
          <mxGeometry x="360" y="900" width="160" height="230" as="geometry" />
        </mxCell>
        <mxCell id="k42B-ygskFCItDhpjXDD-2" value="+&amp;nbsp;hasBug: bool" style="text;strokeColor=none;fillColor=none;align=left;verticalAlign=top;spacingLeft=4;spacingRight=4;overflow=hidden;rotatable=0;points=[[0,0.5],[1,0.5]];portConstraint=eastwest;whiteSpace=wrap;html=1;" vertex="1" parent="k42B-ygskFCItDhpjXDD-1">
          <mxGeometry y="26" width="160" height="26" as="geometry" />
        </mxCell>
        <mxCell id="k42B-ygskFCItDhpjXDD-3" value="" style="line;strokeWidth=1;fillColor=none;align=left;verticalAlign=middle;spacingTop=-1;spacingLeft=3;spacingRight=3;rotatable=0;labelPosition=right;points=[];portConstraint=eastwest;strokeColor=inherit;" vertex="1" parent="k42B-ygskFCItDhpjXDD-1">
          <mxGeometry y="52" width="160" height="8" as="geometry" />
        </mxCell>
        <mxCell id="k42B-ygskFCItDhpjXDD-4" value="+ break()&lt;div&gt;+hasMushroom()&lt;/div&gt;&lt;div&gt;&amp;lt;&amp;lt;virtual&amp;gt;&amp;gt; - growMushroom()&lt;/div&gt;&lt;div&gt;+storeSpore(s: Shroomer.Spore)&lt;/div&gt;&lt;div&gt;+getNeighbours()&lt;/div&gt;&lt;div&gt;&amp;lt;&amp;lt;virtuals&amp;gt;&amp;gt; + acceptHypa(shroomer: Schroomer) bool&lt;/div&gt;&lt;div&gt;+ removeSpore(s: Shroomer.Spore)&lt;/div&gt;&lt;div&gt;+hasBug()&lt;/div&gt;&lt;div&gt;&lt;br&gt;&lt;/div&gt;" style="text;strokeColor=none;fillColor=none;align=left;verticalAlign=top;spacingLeft=4;spacingRight=4;overflow=hidden;rotatable=0;points=[[0,0.5],[1,0.5]];portConstraint=eastwest;whiteSpace=wrap;html=1;" vertex="1" parent="k42B-ygskFCItDhpjXDD-1">
          <mxGeometry y="60" width="160" height="170" as="geometry" />
        </mxCell>
        <mxCell id="FG8BIOksSfUQ8eZlH9Ch-37" value="" style="endArrow=open;endFill=1;endSize=12;html=1;rounded=0;exitX=0.982;exitY=0.272;exitDx=0;exitDy=0;entryX=1.015;entryY=0.887;entryDx=0;entryDy=0;exitPerimeter=0;entryPerimeter=0;" edge="1" parent="k42B-ygskFCItDhpjXDD-1" source="k42B-ygskFCItDhpjXDD-4" target="k42B-ygskFCItDhpjXDD-4">
          <mxGeometry width="160" relative="1" as="geometry">
            <mxPoint x="269.9999999999998" y="160.00000000000023" as="sourcePoint" />
            <mxPoint x="190.0000000000001" y="160.00000000000023" as="targetPoint" />
            <Array as="points">
              <mxPoint x="260" y="106" />
              <mxPoint x="260" y="210" />
            </Array>
          </mxGeometry>
        </mxCell>
        <mxCell id="FG8BIOksSfUQ8eZlH9Ch-38" value="-neighbour" style="edgeLabel;html=1;align=center;verticalAlign=middle;resizable=0;points=[];" vertex="1" connectable="0" parent="FG8BIOksSfUQ8eZlH9Ch-37">
          <mxGeometry x="-0.3749" y="1" relative="1" as="geometry">
            <mxPoint x="-62" y="-5" as="offset" />
          </mxGeometry>
        </mxCell>
        <mxCell id="FG8BIOksSfUQ8eZlH9Ch-39" value="*" style="edgeLabel;html=1;align=center;verticalAlign=middle;resizable=0;points=[];" vertex="1" connectable="0" parent="FG8BIOksSfUQ8eZlH9Ch-37">
          <mxGeometry x="0.2764" y="1" relative="1" as="geometry">
            <mxPoint x="-91" y="2" as="offset" />
          </mxGeometry>
        </mxCell>
      </root>
    </mxGraphModel>
  </diagram>
  <diagram name="2 oldal" id="2S5Rx_f9bX0JYPq5r1Xz">
    <mxGraphModel dx="1290" dy="530" grid="1" gridSize="10" guides="1" tooltips="1" connect="1" arrows="1" fold="1" page="1" pageScale="1" pageWidth="827" pageHeight="1169" math="0" shadow="0">
      <root>
        <mxCell id="0" />
        <mxCell id="1" parent="0" />
        <mxCell id="AcIH4K8weNF2bj_M9ikB-1" value="Tekton.Stone" style="swimlane;fontStyle=1;align=center;verticalAlign=top;childLayout=stackLayout;horizontal=1;startSize=26;horizontalStack=0;resizeParent=1;resizeParentMax=0;resizeLast=0;collapsible=1;marginBottom=0;whiteSpace=wrap;html=1;" parent="1" vertex="1">
          <mxGeometry x="80" y="320" width="160" height="60" as="geometry" />
        </mxCell>
        <mxCell id="AcIH4K8weNF2bj_M9ikB-3" value="" style="line;strokeWidth=1;fillColor=none;align=left;verticalAlign=middle;spacingTop=-1;spacingLeft=3;spacingRight=3;rotatable=0;labelPosition=right;points=[];portConstraint=eastwest;strokeColor=inherit;" parent="AcIH4K8weNF2bj_M9ikB-1" vertex="1">
          <mxGeometry y="26" width="160" height="8" as="geometry" />
        </mxCell>
        <mxCell id="AcIH4K8weNF2bj_M9ikB-4" value="+growMushroom()" style="text;strokeColor=none;fillColor=none;align=left;verticalAlign=top;spacingLeft=4;spacingRight=4;overflow=hidden;rotatable=0;points=[[0,0.5],[1,0.5]];portConstraint=eastwest;whiteSpace=wrap;html=1;" parent="AcIH4K8weNF2bj_M9ikB-1" vertex="1">
          <mxGeometry y="34" width="160" height="26" as="geometry" />
        </mxCell>
        <mxCell id="AcIH4K8weNF2bj_M9ikB-5" value="Tekton.Tekton" style="swimlane;fontStyle=1;align=center;verticalAlign=top;childLayout=stackLayout;horizontal=1;startSize=26;horizontalStack=0;resizeParent=1;resizeParentMax=0;resizeLast=0;collapsible=1;marginBottom=0;whiteSpace=wrap;html=1;" parent="1" vertex="1">
          <mxGeometry x="80" y="40" width="220" height="230" as="geometry" />
        </mxCell>
        <mxCell id="AcIH4K8weNF2bj_M9ikB-6" value="+&amp;nbsp;hasBug: bool" style="text;strokeColor=none;fillColor=none;align=left;verticalAlign=top;spacingLeft=4;spacingRight=4;overflow=hidden;rotatable=0;points=[[0,0.5],[1,0.5]];portConstraint=eastwest;whiteSpace=wrap;html=1;" parent="AcIH4K8weNF2bj_M9ikB-5" vertex="1">
          <mxGeometry y="26" width="220" height="26" as="geometry" />
        </mxCell>
        <mxCell id="AcIH4K8weNF2bj_M9ikB-7" value="" style="line;strokeWidth=1;fillColor=none;align=left;verticalAlign=middle;spacingTop=-1;spacingLeft=3;spacingRight=3;rotatable=0;labelPosition=right;points=[];portConstraint=eastwest;strokeColor=inherit;" parent="AcIH4K8weNF2bj_M9ikB-5" vertex="1">
          <mxGeometry y="52" width="220" height="8" as="geometry" />
        </mxCell>
        <mxCell id="AcIH4K8weNF2bj_M9ikB-8" value="+ break()&lt;div&gt;+hasMushroom()&lt;/div&gt;&lt;div&gt;&amp;lt;&amp;lt;virtual&amp;gt;&amp;gt; - growMushroom()&lt;/div&gt;&lt;div&gt;+storeSpore(s: Shroomer.Spore)&lt;/div&gt;&lt;div&gt;+getNeighbours()&lt;/div&gt;&lt;div&gt;&amp;lt;&amp;lt;virtuals&amp;gt;&amp;gt; + acceptHypa(shroomer: Schroomer) bool&lt;/div&gt;&lt;div&gt;+ removeSpore(s: Shroomer.Spore)&lt;/div&gt;&lt;div&gt;+hasBug()&lt;/div&gt;&lt;div&gt;&lt;br&gt;&lt;/div&gt;" style="text;strokeColor=none;fillColor=none;align=left;verticalAlign=top;spacingLeft=4;spacingRight=4;overflow=hidden;rotatable=0;points=[[0,0.5],[1,0.5]];portConstraint=eastwest;whiteSpace=wrap;html=1;" parent="AcIH4K8weNF2bj_M9ikB-5" vertex="1">
          <mxGeometry y="60" width="220" height="170" as="geometry" />
        </mxCell>
        <mxCell id="AcIH4K8weNF2bj_M9ikB-9" value="Tekton.Swamp" style="swimlane;fontStyle=1;align=center;verticalAlign=top;childLayout=stackLayout;horizontal=1;startSize=26;horizontalStack=0;resizeParent=1;resizeParentMax=0;resizeLast=0;collapsible=1;marginBottom=0;whiteSpace=wrap;html=1;" parent="1" vertex="1">
          <mxGeometry x="280" y="320" width="160" height="60" as="geometry" />
        </mxCell>
        <mxCell id="AcIH4K8weNF2bj_M9ikB-11" value="" style="line;strokeWidth=1;fillColor=none;align=left;verticalAlign=middle;spacingTop=-1;spacingLeft=3;spacingRight=3;rotatable=0;labelPosition=right;points=[];portConstraint=eastwest;strokeColor=inherit;" parent="AcIH4K8weNF2bj_M9ikB-9" vertex="1">
          <mxGeometry y="26" width="160" height="8" as="geometry" />
        </mxCell>
        <mxCell id="AcIH4K8weNF2bj_M9ikB-12" value="+checkForDeleteHypa()&lt;div&gt;&lt;br&gt;&lt;/div&gt;" style="text;strokeColor=none;fillColor=none;align=left;verticalAlign=top;spacingLeft=4;spacingRight=4;overflow=hidden;rotatable=0;points=[[0,0.5],[1,0.5]];portConstraint=eastwest;whiteSpace=wrap;html=1;" parent="AcIH4K8weNF2bj_M9ikB-9" vertex="1">
          <mxGeometry y="34" width="160" height="26" as="geometry" />
        </mxCell>
        <mxCell id="AcIH4K8weNF2bj_M9ikB-13" value="Tekton.Peat" style="swimlane;fontStyle=1;align=center;verticalAlign=top;childLayout=stackLayout;horizontal=1;startSize=26;horizontalStack=0;resizeParent=1;resizeParentMax=0;resizeLast=0;collapsible=1;marginBottom=0;whiteSpace=wrap;html=1;" parent="1" vertex="1">
          <mxGeometry x="480" y="320" width="220" height="60" as="geometry" />
        </mxCell>
        <mxCell id="AcIH4K8weNF2bj_M9ikB-15" value="" style="line;strokeWidth=1;fillColor=none;align=left;verticalAlign=middle;spacingTop=-1;spacingLeft=3;spacingRight=3;rotatable=0;labelPosition=right;points=[];portConstraint=eastwest;strokeColor=inherit;" parent="AcIH4K8weNF2bj_M9ikB-13" vertex="1">
          <mxGeometry y="26" width="220" height="8" as="geometry" />
        </mxCell>
        <mxCell id="AcIH4K8weNF2bj_M9ikB-16" value="+acceptHypa(shroomer: Shroomer.Shroomer)&lt;div&gt;&lt;br&gt;&lt;/div&gt;" style="text;strokeColor=none;fillColor=none;align=left;verticalAlign=top;spacingLeft=4;spacingRight=4;overflow=hidden;rotatable=0;points=[[0,0.5],[1,0.5]];portConstraint=eastwest;whiteSpace=wrap;html=1;" parent="AcIH4K8weNF2bj_M9ikB-13" vertex="1">
          <mxGeometry y="34" width="220" height="26" as="geometry" />
        </mxCell>
        <mxCell id="qZkgUv2Q61EB_jadTJDF-4" value="" style="endArrow=block;endSize=16;endFill=0;html=1;rounded=0;exitX=0.5;exitY=0;exitDx=0;exitDy=0;entryX=0.733;entryY=1.009;entryDx=0;entryDy=0;entryPerimeter=0;" parent="1" source="AcIH4K8weNF2bj_M9ikB-1" target="AcIH4K8weNF2bj_M9ikB-8" edge="1">
          <mxGeometry width="160" relative="1" as="geometry">
            <mxPoint x="160" y="160" as="sourcePoint" />
            <mxPoint x="320" y="160" as="targetPoint" />
            <Array as="points">
              <mxPoint x="160" y="300" />
              <mxPoint x="240" y="300" />
            </Array>
          </mxGeometry>
        </mxCell>
        <mxCell id="qZkgUv2Q61EB_jadTJDF-8" value="" style="endArrow=none;html=1;edgeStyle=orthogonalEdgeStyle;rounded=0;entryX=0.34;entryY=-0.007;entryDx=0;entryDy=0;entryPerimeter=0;" parent="1" target="AcIH4K8weNF2bj_M9ikB-13" edge="1">
          <mxGeometry relative="1" as="geometry">
            <mxPoint x="240" y="300" as="sourcePoint" />
            <mxPoint x="500" y="160" as="targetPoint" />
          </mxGeometry>
        </mxCell>
        <mxCell id="qZkgUv2Q61EB_jadTJDF-11" value="" style="endArrow=none;html=1;rounded=0;exitX=0.25;exitY=0;exitDx=0;exitDy=0;" parent="1" source="AcIH4K8weNF2bj_M9ikB-9" edge="1">
          <mxGeometry width="50" height="50" relative="1" as="geometry">
            <mxPoint x="340" y="180" as="sourcePoint" />
            <mxPoint x="320" y="300" as="targetPoint" />
          </mxGeometry>
        </mxCell>
        <mxCell id="qZkgUv2Q61EB_jadTJDF-12" value="&lt;span style=&quot;font-weight: normal;&quot;&gt;&amp;lt;&amp;lt;interface&amp;gt;&amp;gt;&lt;/span&gt;&lt;div&gt;&lt;i&gt;Bug.Bug.Strategy&lt;/i&gt;&lt;/div&gt;" style="swimlane;fontStyle=1;align=center;verticalAlign=top;childLayout=stackLayout;horizontal=1;startSize=40;horizontalStack=0;resizeParent=1;resizeParentMax=0;resizeLast=0;collapsible=1;marginBottom=0;whiteSpace=wrap;html=1;" parent="1" vertex="1">
          <mxGeometry x="80" y="540" width="160" height="110" as="geometry" />
        </mxCell>
        <mxCell id="qZkgUv2Q61EB_jadTJDF-14" value="" style="line;strokeWidth=1;fillColor=none;align=left;verticalAlign=middle;spacingTop=-1;spacingLeft=3;spacingRight=3;rotatable=0;labelPosition=right;points=[];portConstraint=eastwest;strokeColor=inherit;" parent="qZkgUv2Q61EB_jadTJDF-12" vertex="1">
          <mxGeometry y="40" width="160" height="8" as="geometry" />
        </mxCell>
        <mxCell id="qZkgUv2Q61EB_jadTJDF-15" value="&lt;i&gt;+ eat(s: Shroomer.Spore)&lt;/i&gt;&lt;div&gt;&lt;i&gt;+ bite(h: Shroomer.Hypa)&lt;/i&gt;&lt;/div&gt;&lt;div&gt;&lt;i&gt;+ move(t: Tekton.Tekton)&lt;/i&gt;&lt;/div&gt;&lt;div&gt;&lt;br&gt;&lt;/div&gt;" style="text;strokeColor=none;fillColor=none;align=left;verticalAlign=top;spacingLeft=4;spacingRight=4;overflow=hidden;rotatable=0;points=[[0,0.5],[1,0.5]];portConstraint=eastwest;whiteSpace=wrap;html=1;" parent="qZkgUv2Q61EB_jadTJDF-12" vertex="1">
          <mxGeometry y="48" width="160" height="62" as="geometry" />
        </mxCell>
        <mxCell id="qZkgUv2Q61EB_jadTJDF-16" value="Bug.Bug.BiteBlocked" style="swimlane;fontStyle=1;align=center;verticalAlign=top;childLayout=stackLayout;horizontal=1;startSize=26;horizontalStack=0;resizeParent=1;resizeParentMax=0;resizeLast=0;collapsible=1;marginBottom=0;whiteSpace=wrap;html=1;" parent="1" vertex="1">
          <mxGeometry x="50" y="810" width="160" height="90" as="geometry" />
        </mxCell>
        <mxCell id="qZkgUv2Q61EB_jadTJDF-18" value="" style="line;strokeWidth=1;fillColor=none;align=left;verticalAlign=middle;spacingTop=-1;spacingLeft=3;spacingRight=3;rotatable=0;labelPosition=right;points=[];portConstraint=eastwest;strokeColor=inherit;" parent="qZkgUv2Q61EB_jadTJDF-16" vertex="1">
          <mxGeometry y="26" width="160" height="8" as="geometry" />
        </mxCell>
        <mxCell id="qZkgUv2Q61EB_jadTJDF-19" value="+ eat(s: Shroomer.Spore)&lt;div&gt;+ bite(h: Shroomer.Hypa)&lt;/div&gt;&lt;div&gt;+ move(t: Tekton.Tekton)&lt;/div&gt;&lt;div&gt;&lt;br&gt;&lt;/div&gt;" style="text;strokeColor=none;fillColor=none;align=left;verticalAlign=top;spacingLeft=4;spacingRight=4;overflow=hidden;rotatable=0;points=[[0,0.5],[1,0.5]];portConstraint=eastwest;whiteSpace=wrap;html=1;" parent="qZkgUv2Q61EB_jadTJDF-16" vertex="1">
          <mxGeometry y="34" width="160" height="56" as="geometry" />
        </mxCell>
        <mxCell id="qZkgUv2Q61EB_jadTJDF-20" value="Bug.Bug.Boosted" style="swimlane;fontStyle=1;align=center;verticalAlign=top;childLayout=stackLayout;horizontal=1;startSize=26;horizontalStack=0;resizeParent=1;resizeParentMax=0;resizeLast=0;collapsible=1;marginBottom=0;whiteSpace=wrap;html=1;" parent="1" vertex="1">
          <mxGeometry x="580" y="810" width="160" height="90" as="geometry" />
        </mxCell>
        <mxCell id="qZkgUv2Q61EB_jadTJDF-22" value="" style="line;strokeWidth=1;fillColor=none;align=left;verticalAlign=middle;spacingTop=-1;spacingLeft=3;spacingRight=3;rotatable=0;labelPosition=right;points=[];portConstraint=eastwest;strokeColor=inherit;" parent="qZkgUv2Q61EB_jadTJDF-20" vertex="1">
          <mxGeometry y="26" width="160" height="8" as="geometry" />
        </mxCell>
        <mxCell id="qZkgUv2Q61EB_jadTJDF-23" value="+ eat(s: Shroomer.Spore)&lt;div&gt;+ bite(h: Shroomer.Hypa)&lt;/div&gt;&lt;div&gt;+ move(t: Tekton.Tekton)&lt;/div&gt;&lt;div&gt;&lt;br&gt;&lt;/div&gt;" style="text;strokeColor=none;fillColor=none;align=left;verticalAlign=top;spacingLeft=4;spacingRight=4;overflow=hidden;rotatable=0;points=[[0,0.5],[1,0.5]];portConstraint=eastwest;whiteSpace=wrap;html=1;" parent="qZkgUv2Q61EB_jadTJDF-20" vertex="1">
          <mxGeometry y="34" width="160" height="56" as="geometry" />
        </mxCell>
        <mxCell id="qZkgUv2Q61EB_jadTJDF-24" value="Bug.Bug.Slowed" style="swimlane;fontStyle=1;align=center;verticalAlign=top;childLayout=stackLayout;horizontal=1;startSize=26;horizontalStack=0;resizeParent=1;resizeParentMax=0;resizeLast=0;collapsible=1;marginBottom=0;whiteSpace=wrap;html=1;" parent="1" vertex="1">
          <mxGeometry x="400" y="810" width="160" height="90" as="geometry" />
        </mxCell>
        <mxCell id="qZkgUv2Q61EB_jadTJDF-26" value="" style="line;strokeWidth=1;fillColor=none;align=left;verticalAlign=middle;spacingTop=-1;spacingLeft=3;spacingRight=3;rotatable=0;labelPosition=right;points=[];portConstraint=eastwest;strokeColor=inherit;" parent="qZkgUv2Q61EB_jadTJDF-24" vertex="1">
          <mxGeometry y="26" width="160" height="8" as="geometry" />
        </mxCell>
        <mxCell id="qZkgUv2Q61EB_jadTJDF-27" value="+ eat(s: Shroomer.Spore)&lt;div&gt;+ bite(h: Shroomer.Hypa)&lt;/div&gt;&lt;div&gt;+ move(t: Tekton.Tekton)&lt;/div&gt;&lt;div&gt;&lt;br&gt;&lt;/div&gt;" style="text;strokeColor=none;fillColor=none;align=left;verticalAlign=top;spacingLeft=4;spacingRight=4;overflow=hidden;rotatable=0;points=[[0,0.5],[1,0.5]];portConstraint=eastwest;whiteSpace=wrap;html=1;" parent="qZkgUv2Q61EB_jadTJDF-24" vertex="1">
          <mxGeometry y="34" width="160" height="56" as="geometry" />
        </mxCell>
        <mxCell id="qZkgUv2Q61EB_jadTJDF-28" value="Bug.Bug.Paralyzed" style="swimlane;fontStyle=1;align=center;verticalAlign=top;childLayout=stackLayout;horizontal=1;startSize=26;horizontalStack=0;resizeParent=1;resizeParentMax=0;resizeLast=0;collapsible=1;marginBottom=0;whiteSpace=wrap;html=1;" parent="1" vertex="1">
          <mxGeometry x="220" y="810" width="160" height="90" as="geometry" />
        </mxCell>
        <mxCell id="qZkgUv2Q61EB_jadTJDF-30" value="" style="line;strokeWidth=1;fillColor=none;align=left;verticalAlign=middle;spacingTop=-1;spacingLeft=3;spacingRight=3;rotatable=0;labelPosition=right;points=[];portConstraint=eastwest;strokeColor=inherit;" parent="qZkgUv2Q61EB_jadTJDF-28" vertex="1">
          <mxGeometry y="26" width="160" height="8" as="geometry" />
        </mxCell>
        <mxCell id="qZkgUv2Q61EB_jadTJDF-31" value="+ eat(s: Shroomer.Spore)&lt;div&gt;+ bite(h: Shroomer.Hypa)&lt;/div&gt;&lt;div&gt;+ move(t: Tekton.Tekton)&lt;/div&gt;&lt;div&gt;&lt;br&gt;&lt;/div&gt;" style="text;strokeColor=none;fillColor=none;align=left;verticalAlign=top;spacingLeft=4;spacingRight=4;overflow=hidden;rotatable=0;points=[[0,0.5],[1,0.5]];portConstraint=eastwest;whiteSpace=wrap;html=1;" parent="qZkgUv2Q61EB_jadTJDF-28" vertex="1">
          <mxGeometry y="34" width="160" height="56" as="geometry" />
        </mxCell>
        <mxCell id="qZkgUv2Q61EB_jadTJDF-32" value="Bug.Bug.Normal" style="swimlane;fontStyle=1;align=center;verticalAlign=top;childLayout=stackLayout;horizontal=1;startSize=26;horizontalStack=0;resizeParent=1;resizeParentMax=0;resizeLast=0;collapsible=1;marginBottom=0;whiteSpace=wrap;html=1;" parent="1" vertex="1">
          <mxGeometry x="300" y="630" width="160" height="110" as="geometry" />
        </mxCell>
        <mxCell id="qZkgUv2Q61EB_jadTJDF-34" value="" style="line;strokeWidth=1;fillColor=none;align=left;verticalAlign=middle;spacingTop=-1;spacingLeft=3;spacingRight=3;rotatable=0;labelPosition=right;points=[];portConstraint=eastwest;strokeColor=inherit;" parent="qZkgUv2Q61EB_jadTJDF-32" vertex="1">
          <mxGeometry y="26" width="160" height="8" as="geometry" />
        </mxCell>
        <mxCell id="qZkgUv2Q61EB_jadTJDF-35" value="&lt;div&gt;+ chooseAction(): int&lt;/div&gt;+ eat(s: Shroomer.Spore)&lt;div&gt;+ bite(h: Shroomer.Hypa)&lt;/div&gt;&lt;div&gt;+ move(t: Tekton.Tekton)&lt;/div&gt;&lt;div&gt;&lt;br&gt;&lt;/div&gt;" style="text;strokeColor=none;fillColor=none;align=left;verticalAlign=top;spacingLeft=4;spacingRight=4;overflow=hidden;rotatable=0;points=[[0,0.5],[1,0.5]];portConstraint=eastwest;whiteSpace=wrap;html=1;" parent="qZkgUv2Q61EB_jadTJDF-32" vertex="1">
          <mxGeometry y="34" width="160" height="76" as="geometry" />
        </mxCell>
        <mxCell id="UocgCYC0JBfxs-M5fhTi-1" value="" style="endArrow=block;dashed=1;endFill=0;endSize=12;html=1;rounded=0;exitX=0.608;exitY=-0.027;exitDx=0;exitDy=0;exitPerimeter=0;entryX=0.438;entryY=1.013;entryDx=0;entryDy=0;entryPerimeter=0;" edge="1" parent="1" source="qZkgUv2Q61EB_jadTJDF-20" target="qZkgUv2Q61EB_jadTJDF-15">
          <mxGeometry width="160" relative="1" as="geometry">
            <mxPoint x="330" y="770" as="sourcePoint" />
            <mxPoint x="490" y="770" as="targetPoint" />
            <Array as="points">
              <mxPoint x="680" y="780" />
              <mxPoint x="150" y="780" />
            </Array>
          </mxGeometry>
        </mxCell>
        <mxCell id="UocgCYC0JBfxs-M5fhTi-2" value="" style="endArrow=none;dashed=1;html=1;rounded=0;entryX=0;entryY=0.5;entryDx=0;entryDy=0;" edge="1" parent="1" target="qZkgUv2Q61EB_jadTJDF-35">
          <mxGeometry width="50" height="50" relative="1" as="geometry">
            <mxPoint x="150" y="700" as="sourcePoint" />
            <mxPoint x="440" y="750" as="targetPoint" />
          </mxGeometry>
        </mxCell>
        <mxCell id="UocgCYC0JBfxs-M5fhTi-3" value="" style="endArrow=none;dashed=1;html=1;rounded=0;exitX=0.445;exitY=-0.036;exitDx=0;exitDy=0;exitPerimeter=0;" edge="1" parent="1" source="qZkgUv2Q61EB_jadTJDF-16">
          <mxGeometry width="50" height="50" relative="1" as="geometry">
            <mxPoint x="390" y="800" as="sourcePoint" />
            <mxPoint x="150" y="780" as="targetPoint" />
            <Array as="points">
              <mxPoint x="121" y="780" />
            </Array>
          </mxGeometry>
        </mxCell>
        <mxCell id="UocgCYC0JBfxs-M5fhTi-4" value="" style="endArrow=none;dashed=1;html=1;rounded=0;exitX=0.433;exitY=0.009;exitDx=0;exitDy=0;exitPerimeter=0;" edge="1" parent="1" source="qZkgUv2Q61EB_jadTJDF-28">
          <mxGeometry width="50" height="50" relative="1" as="geometry">
            <mxPoint x="390" y="800" as="sourcePoint" />
            <mxPoint x="290" y="780" as="targetPoint" />
          </mxGeometry>
        </mxCell>
        <mxCell id="UocgCYC0JBfxs-M5fhTi-5" value="" style="endArrow=none;dashed=1;html=1;rounded=0;exitX=0.433;exitY=0.009;exitDx=0;exitDy=0;exitPerimeter=0;" edge="1" parent="1">
          <mxGeometry width="50" height="50" relative="1" as="geometry">
            <mxPoint x="455" y="812" as="sourcePoint" />
            <mxPoint x="456" y="781" as="targetPoint" />
          </mxGeometry>
        </mxCell>
      </root>
    </mxGraphModel>
  </diagram>
  <diagram name="3 oldal" id="9Ix9c9po5YWMjbLWzyvs">
    <mxGraphModel dx="1290" dy="530" grid="1" gridSize="10" guides="1" tooltips="1" connect="1" arrows="1" fold="1" page="1" pageScale="1" pageWidth="827" pageHeight="1169" math="0" shadow="0">
      <root>
        <mxCell id="0" />
        <mxCell id="1" parent="0" />
        <mxCell id="6WlqW3tdLEVUMyMOWgQi-1" value="&lt;i&gt;Shroomer.Mushroom&lt;/i&gt;" style="swimlane;fontStyle=1;align=center;verticalAlign=top;childLayout=stackLayout;horizontal=1;startSize=26;horizontalStack=0;resizeParent=1;resizeParentMax=0;resizeLast=0;collapsible=1;marginBottom=0;whiteSpace=wrap;html=1;" parent="1" vertex="1">
          <mxGeometry x="80" y="30" width="220" height="170" as="geometry" />
        </mxCell>
        <mxCell id="6WlqW3tdLEVUMyMOWgQi-2" value="- age:int&lt;div&gt;- numberOfSpores: int&lt;/div&gt;&lt;div&gt;- sporesThrown: int&lt;/div&gt;" style="text;strokeColor=none;fillColor=none;align=left;verticalAlign=top;spacingLeft=4;spacingRight=4;overflow=hidden;rotatable=0;points=[[0,0.5],[1,0.5]];portConstraint=eastwest;whiteSpace=wrap;html=1;" parent="6WlqW3tdLEVUMyMOWgQi-1" vertex="1">
          <mxGeometry y="26" width="220" height="64" as="geometry" />
        </mxCell>
        <mxCell id="6WlqW3tdLEVUMyMOWgQi-3" value="" style="line;strokeWidth=1;fillColor=none;align=left;verticalAlign=middle;spacingTop=-1;spacingLeft=3;spacingRight=3;rotatable=0;labelPosition=right;points=[];portConstraint=eastwest;strokeColor=inherit;" parent="6WlqW3tdLEVUMyMOWgQi-1" vertex="1">
          <mxGeometry y="90" width="220" height="8" as="geometry" />
        </mxCell>
        <mxCell id="6WlqW3tdLEVUMyMOWgQi-4" value="&lt;i&gt;+ sporeThrown(to: Tekton.Tekton)&lt;/i&gt;&lt;div&gt;+ Shroomer.Mushroom(s: Shroomer.Shroomer, pos: Tekton.Tekton)&lt;/div&gt;&lt;div&gt;+ die()&lt;/div&gt;&lt;div&gt;+ age()&lt;/div&gt;" style="text;strokeColor=none;fillColor=none;align=left;verticalAlign=top;spacingLeft=4;spacingRight=4;overflow=hidden;rotatable=0;points=[[0,0.5],[1,0.5]];portConstraint=eastwest;whiteSpace=wrap;html=1;" parent="6WlqW3tdLEVUMyMOWgQi-1" vertex="1">
          <mxGeometry y="98" width="220" height="72" as="geometry" />
        </mxCell>
        <mxCell id="6WlqW3tdLEVUMyMOWgQi-5" value="Shroomer.BoosterMushroom" style="swimlane;fontStyle=1;align=center;verticalAlign=top;childLayout=stackLayout;horizontal=1;startSize=26;horizontalStack=0;resizeParent=1;resizeParentMax=0;resizeLast=0;collapsible=1;marginBottom=0;whiteSpace=wrap;html=1;" parent="1" vertex="1">
          <mxGeometry x="80" y="250" width="160" height="60" as="geometry" />
        </mxCell>
        <mxCell id="6WlqW3tdLEVUMyMOWgQi-7" value="" style="line;strokeWidth=1;fillColor=none;align=left;verticalAlign=middle;spacingTop=-1;spacingLeft=3;spacingRight=3;rotatable=0;labelPosition=right;points=[];portConstraint=eastwest;strokeColor=inherit;" parent="6WlqW3tdLEVUMyMOWgQi-5" vertex="1">
          <mxGeometry y="26" width="160" height="8" as="geometry" />
        </mxCell>
        <mxCell id="6WlqW3tdLEVUMyMOWgQi-8" value="+ sporeThrown(to: Tekton.Tekton)" style="text;strokeColor=none;fillColor=none;align=left;verticalAlign=top;spacingLeft=4;spacingRight=4;overflow=hidden;rotatable=0;points=[[0,0.5],[1,0.5]];portConstraint=eastwest;whiteSpace=wrap;html=1;" parent="6WlqW3tdLEVUMyMOWgQi-5" vertex="1">
          <mxGeometry y="34" width="160" height="26" as="geometry" />
        </mxCell>
        <mxCell id="6WlqW3tdLEVUMyMOWgQi-9" value="BiteBlocker" style="swimlane;fontStyle=1;align=center;verticalAlign=top;childLayout=stackLayout;horizontal=1;startSize=26;horizontalStack=0;resizeParent=1;resizeParentMax=0;resizeLast=0;collapsible=1;marginBottom=0;whiteSpace=wrap;html=1;" parent="1" vertex="1">
          <mxGeometry x="640" y="440" width="180" height="60" as="geometry" />
        </mxCell>
        <mxCell id="6WlqW3tdLEVUMyMOWgQi-11" value="" style="line;strokeWidth=1;fillColor=none;align=left;verticalAlign=middle;spacingTop=-1;spacingLeft=3;spacingRight=3;rotatable=0;labelPosition=right;points=[];portConstraint=eastwest;strokeColor=inherit;" parent="6WlqW3tdLEVUMyMOWgQi-9" vertex="1">
          <mxGeometry y="26" width="180" height="8" as="geometry" />
        </mxCell>
        <mxCell id="6WlqW3tdLEVUMyMOWgQi-12" value="+ haveEffect(chosenAction: int)" style="text;strokeColor=none;fillColor=none;align=left;verticalAlign=top;spacingLeft=4;spacingRight=4;overflow=hidden;rotatable=0;points=[[0,0.5],[1,0.5]];portConstraint=eastwest;whiteSpace=wrap;html=1;" parent="6WlqW3tdLEVUMyMOWgQi-9" vertex="1">
          <mxGeometry y="34" width="180" height="26" as="geometry" />
        </mxCell>
        <mxCell id="6WlqW3tdLEVUMyMOWgQi-13" value="&lt;i&gt;Shroomer.Spore&lt;/i&gt;" style="swimlane;fontStyle=1;align=center;verticalAlign=top;childLayout=stackLayout;horizontal=1;startSize=26;horizontalStack=0;resizeParent=1;resizeParentMax=0;resizeLast=0;collapsible=1;marginBottom=0;whiteSpace=wrap;html=1;" parent="1" vertex="1">
          <mxGeometry x="300" y="580" width="180" height="100" as="geometry" />
        </mxCell>
        <mxCell id="6WlqW3tdLEVUMyMOWgQi-15" value="" style="line;strokeWidth=1;fillColor=none;align=left;verticalAlign=middle;spacingTop=-1;spacingLeft=3;spacingRight=3;rotatable=0;labelPosition=right;points=[];portConstraint=eastwest;strokeColor=inherit;" parent="6WlqW3tdLEVUMyMOWgQi-13" vertex="1">
          <mxGeometry y="26" width="180" height="8" as="geometry" />
        </mxCell>
        <mxCell id="6WlqW3tdLEVUMyMOWgQi-16" value="+&lt;i&gt;&amp;nbsp;haveEffect(chosenAction: int)&lt;/i&gt;&lt;div&gt;+ Shroomer.Spore(g: Gombasz)&lt;/div&gt;&lt;div&gt;+ beEaten(b: Bugger)&lt;/div&gt;" style="text;strokeColor=none;fillColor=none;align=left;verticalAlign=top;spacingLeft=4;spacingRight=4;overflow=hidden;rotatable=0;points=[[0,0.5],[1,0.5]];portConstraint=eastwest;whiteSpace=wrap;html=1;" parent="6WlqW3tdLEVUMyMOWgQi-13" vertex="1">
          <mxGeometry y="34" width="180" height="66" as="geometry" />
        </mxCell>
        <mxCell id="6WlqW3tdLEVUMyMOWgQi-21" value="Shroomer.SlowerMushroom" style="swimlane;fontStyle=1;align=center;verticalAlign=top;childLayout=stackLayout;horizontal=1;startSize=26;horizontalStack=0;resizeParent=1;resizeParentMax=0;resizeLast=0;collapsible=1;marginBottom=0;whiteSpace=wrap;html=1;" parent="1" vertex="1">
          <mxGeometry x="260" y="250" width="160" height="60" as="geometry" />
        </mxCell>
        <mxCell id="6WlqW3tdLEVUMyMOWgQi-22" value="" style="line;strokeWidth=1;fillColor=none;align=left;verticalAlign=middle;spacingTop=-1;spacingLeft=3;spacingRight=3;rotatable=0;labelPosition=right;points=[];portConstraint=eastwest;strokeColor=inherit;" parent="6WlqW3tdLEVUMyMOWgQi-21" vertex="1">
          <mxGeometry y="26" width="160" height="8" as="geometry" />
        </mxCell>
        <mxCell id="6WlqW3tdLEVUMyMOWgQi-23" value="+ sporeThrown(to: Tekton.Tekton)" style="text;strokeColor=none;fillColor=none;align=left;verticalAlign=top;spacingLeft=4;spacingRight=4;overflow=hidden;rotatable=0;points=[[0,0.5],[1,0.5]];portConstraint=eastwest;whiteSpace=wrap;html=1;" parent="6WlqW3tdLEVUMyMOWgQi-21" vertex="1">
          <mxGeometry y="34" width="160" height="26" as="geometry" />
        </mxCell>
        <mxCell id="6WlqW3tdLEVUMyMOWgQi-24" value="Shroomer.ParalyzerMushroom" style="swimlane;fontStyle=1;align=center;verticalAlign=top;childLayout=stackLayout;horizontal=1;startSize=26;horizontalStack=0;resizeParent=1;resizeParentMax=0;resizeLast=0;collapsible=1;marginBottom=0;whiteSpace=wrap;html=1;" parent="1" vertex="1">
          <mxGeometry x="440" y="250" width="160" height="60" as="geometry" />
        </mxCell>
        <mxCell id="6WlqW3tdLEVUMyMOWgQi-25" value="" style="line;strokeWidth=1;fillColor=none;align=left;verticalAlign=middle;spacingTop=-1;spacingLeft=3;spacingRight=3;rotatable=0;labelPosition=right;points=[];portConstraint=eastwest;strokeColor=inherit;" parent="6WlqW3tdLEVUMyMOWgQi-24" vertex="1">
          <mxGeometry y="26" width="160" height="8" as="geometry" />
        </mxCell>
        <mxCell id="6WlqW3tdLEVUMyMOWgQi-26" value="+ sporeThrown(to: Tekton.Tekton)" style="text;strokeColor=none;fillColor=none;align=left;verticalAlign=top;spacingLeft=4;spacingRight=4;overflow=hidden;rotatable=0;points=[[0,0.5],[1,0.5]];portConstraint=eastwest;whiteSpace=wrap;html=1;" parent="6WlqW3tdLEVUMyMOWgQi-24" vertex="1">
          <mxGeometry y="34" width="160" height="26" as="geometry" />
        </mxCell>
        <mxCell id="6WlqW3tdLEVUMyMOWgQi-27" value="Shroomer.Shroomer.BiteBlockerMushroom" style="swimlane;fontStyle=1;align=center;verticalAlign=top;childLayout=stackLayout;horizontal=1;startSize=26;horizontalStack=0;resizeParent=1;resizeParentMax=0;resizeLast=0;collapsible=1;marginBottom=0;whiteSpace=wrap;html=1;" parent="1" vertex="1">
          <mxGeometry x="620" y="250" width="160" height="60" as="geometry" />
        </mxCell>
        <mxCell id="6WlqW3tdLEVUMyMOWgQi-28" value="" style="line;strokeWidth=1;fillColor=none;align=left;verticalAlign=middle;spacingTop=-1;spacingLeft=3;spacingRight=3;rotatable=0;labelPosition=right;points=[];portConstraint=eastwest;strokeColor=inherit;" parent="6WlqW3tdLEVUMyMOWgQi-27" vertex="1">
          <mxGeometry y="26" width="160" height="8" as="geometry" />
        </mxCell>
        <mxCell id="6WlqW3tdLEVUMyMOWgQi-29" value="+ sporeThrown(to: Tekton.Tekton)" style="text;strokeColor=none;fillColor=none;align=left;verticalAlign=top;spacingLeft=4;spacingRight=4;overflow=hidden;rotatable=0;points=[[0,0.5],[1,0.5]];portConstraint=eastwest;whiteSpace=wrap;html=1;" parent="6WlqW3tdLEVUMyMOWgQi-27" vertex="1">
          <mxGeometry y="34" width="160" height="26" as="geometry" />
        </mxCell>
        <mxCell id="6WlqW3tdLEVUMyMOWgQi-30" value="" style="endArrow=block;endSize=16;endFill=0;html=1;rounded=0;exitX=0.5;exitY=0;exitDx=0;exitDy=0;entryX=0.55;entryY=1.033;entryDx=0;entryDy=0;entryPerimeter=0;" parent="1" source="6WlqW3tdLEVUMyMOWgQi-5" target="6WlqW3tdLEVUMyMOWgQi-4" edge="1">
          <mxGeometry width="160" relative="1" as="geometry">
            <mxPoint x="230" y="210" as="sourcePoint" />
            <mxPoint x="390" y="210" as="targetPoint" />
            <Array as="points">
              <mxPoint x="160" y="230" />
              <mxPoint x="200" y="230" />
            </Array>
          </mxGeometry>
        </mxCell>
        <mxCell id="6WlqW3tdLEVUMyMOWgQi-31" value="" style="endArrow=none;html=1;rounded=0;" parent="1" edge="1">
          <mxGeometry width="50" height="50" relative="1" as="geometry">
            <mxPoint x="200" y="230" as="sourcePoint" />
            <mxPoint x="683.2000122070312" y="230" as="targetPoint" />
          </mxGeometry>
        </mxCell>
        <mxCell id="6WlqW3tdLEVUMyMOWgQi-34" value="" style="endArrow=none;html=1;rounded=0;entryX=0.374;entryY=-0.015;entryDx=0;entryDy=0;entryPerimeter=0;" parent="1" target="6WlqW3tdLEVUMyMOWgQi-21" edge="1">
          <mxGeometry width="50" height="50" relative="1" as="geometry">
            <mxPoint x="320" y="230" as="sourcePoint" />
            <mxPoint x="390" y="240" as="targetPoint" />
          </mxGeometry>
        </mxCell>
        <mxCell id="6WlqW3tdLEVUMyMOWgQi-35" value="" style="endArrow=none;html=1;rounded=0;entryX=0.374;entryY=-0.015;entryDx=0;entryDy=0;entryPerimeter=0;" parent="1" edge="1">
          <mxGeometry width="50" height="50" relative="1" as="geometry">
            <mxPoint x="500.00000000000006" y="231" as="sourcePoint" />
            <mxPoint x="500.00000000000006" y="250" as="targetPoint" />
          </mxGeometry>
        </mxCell>
        <mxCell id="6WlqW3tdLEVUMyMOWgQi-39" value="" style="endArrow=none;html=1;rounded=0;entryX=0.374;entryY=-0.015;entryDx=0;entryDy=0;entryPerimeter=0;" parent="1" edge="1">
          <mxGeometry width="50" height="50" relative="1" as="geometry">
            <mxPoint x="683" y="231" as="sourcePoint" />
            <mxPoint x="683" y="250" as="targetPoint" />
          </mxGeometry>
        </mxCell>
        <mxCell id="251GQUwDpswAqtSM6YWG-1" value="Booster" style="swimlane;fontStyle=1;align=center;verticalAlign=top;childLayout=stackLayout;horizontal=1;startSize=26;horizontalStack=0;resizeParent=1;resizeParentMax=0;resizeLast=0;collapsible=1;marginBottom=0;whiteSpace=wrap;html=1;" parent="1" vertex="1">
          <mxGeometry x="40" y="440" width="180" height="60" as="geometry" />
        </mxCell>
        <mxCell id="251GQUwDpswAqtSM6YWG-2" value="" style="line;strokeWidth=1;fillColor=none;align=left;verticalAlign=middle;spacingTop=-1;spacingLeft=3;spacingRight=3;rotatable=0;labelPosition=right;points=[];portConstraint=eastwest;strokeColor=inherit;" parent="251GQUwDpswAqtSM6YWG-1" vertex="1">
          <mxGeometry y="26" width="180" height="8" as="geometry" />
        </mxCell>
        <mxCell id="251GQUwDpswAqtSM6YWG-3" value="+ haveEffect(chosenAction: int)" style="text;strokeColor=none;fillColor=none;align=left;verticalAlign=top;spacingLeft=4;spacingRight=4;overflow=hidden;rotatable=0;points=[[0,0.5],[1,0.5]];portConstraint=eastwest;whiteSpace=wrap;html=1;" parent="251GQUwDpswAqtSM6YWG-1" vertex="1">
          <mxGeometry y="34" width="180" height="26" as="geometry" />
        </mxCell>
        <mxCell id="251GQUwDpswAqtSM6YWG-4" value="Slower" style="swimlane;fontStyle=1;align=center;verticalAlign=top;childLayout=stackLayout;horizontal=1;startSize=26;horizontalStack=0;resizeParent=1;resizeParentMax=0;resizeLast=0;collapsible=1;marginBottom=0;whiteSpace=wrap;html=1;" parent="1" vertex="1">
          <mxGeometry x="240" y="440" width="180" height="60" as="geometry" />
        </mxCell>
        <mxCell id="251GQUwDpswAqtSM6YWG-5" value="" style="line;strokeWidth=1;fillColor=none;align=left;verticalAlign=middle;spacingTop=-1;spacingLeft=3;spacingRight=3;rotatable=0;labelPosition=right;points=[];portConstraint=eastwest;strokeColor=inherit;" parent="251GQUwDpswAqtSM6YWG-4" vertex="1">
          <mxGeometry y="26" width="180" height="8" as="geometry" />
        </mxCell>
        <mxCell id="251GQUwDpswAqtSM6YWG-6" value="+ haveEffect(chosenAction: int)" style="text;strokeColor=none;fillColor=none;align=left;verticalAlign=top;spacingLeft=4;spacingRight=4;overflow=hidden;rotatable=0;points=[[0,0.5],[1,0.5]];portConstraint=eastwest;whiteSpace=wrap;html=1;" parent="251GQUwDpswAqtSM6YWG-4" vertex="1">
          <mxGeometry y="34" width="180" height="26" as="geometry" />
        </mxCell>
        <mxCell id="251GQUwDpswAqtSM6YWG-7" value="Paralyzer" style="swimlane;fontStyle=1;align=center;verticalAlign=top;childLayout=stackLayout;horizontal=1;startSize=26;horizontalStack=0;resizeParent=1;resizeParentMax=0;resizeLast=0;collapsible=1;marginBottom=0;whiteSpace=wrap;html=1;" parent="1" vertex="1">
          <mxGeometry x="440" y="440" width="180" height="60" as="geometry" />
        </mxCell>
        <mxCell id="251GQUwDpswAqtSM6YWG-8" value="" style="line;strokeWidth=1;fillColor=none;align=left;verticalAlign=middle;spacingTop=-1;spacingLeft=3;spacingRight=3;rotatable=0;labelPosition=right;points=[];portConstraint=eastwest;strokeColor=inherit;" parent="251GQUwDpswAqtSM6YWG-7" vertex="1">
          <mxGeometry y="26" width="180" height="8" as="geometry" />
        </mxCell>
        <mxCell id="251GQUwDpswAqtSM6YWG-9" value="+ haveEffect(chosenAction: int)" style="text;strokeColor=none;fillColor=none;align=left;verticalAlign=top;spacingLeft=4;spacingRight=4;overflow=hidden;rotatable=0;points=[[0,0.5],[1,0.5]];portConstraint=eastwest;whiteSpace=wrap;html=1;" parent="251GQUwDpswAqtSM6YWG-7" vertex="1">
          <mxGeometry y="34" width="180" height="26" as="geometry" />
        </mxCell>
        <mxCell id="251GQUwDpswAqtSM6YWG-11" value="&amp;lt;&amp;lt;instantlate&amp;gt;&amp;gt;" style="endArrow=open;endSize=12;dashed=1;html=1;rounded=0;exitX=0.62;exitY=-0.007;exitDx=0;exitDy=0;exitPerimeter=0;entryX=0.568;entryY=1;entryDx=0;entryDy=0;entryPerimeter=0;" parent="1" edge="1" target="6WlqW3tdLEVUMyMOWgQi-23" source="251GQUwDpswAqtSM6YWG-4">
          <mxGeometry width="160" relative="1" as="geometry">
            <mxPoint x="329.58000000000004" y="310" as="sourcePoint" />
            <mxPoint x="329.58000000000004" y="440" as="targetPoint" />
          </mxGeometry>
        </mxCell>
        <mxCell id="251GQUwDpswAqtSM6YWG-12" value="&amp;lt;&amp;lt;instantlate&amp;gt;&amp;gt;" style="endArrow=open;endSize=12;dashed=1;html=1;rounded=0;exitX=0.556;exitY=0;exitDx=0;exitDy=0;exitPerimeter=0;entryX=0.633;entryY=1.092;entryDx=0;entryDy=0;entryPerimeter=0;" parent="1" edge="1" target="6WlqW3tdLEVUMyMOWgQi-26" source="251GQUwDpswAqtSM6YWG-7">
          <mxGeometry width="160" relative="1" as="geometry">
            <mxPoint x="519.58" y="310" as="sourcePoint" />
            <mxPoint x="519.58" y="440" as="targetPoint" />
          </mxGeometry>
        </mxCell>
        <mxCell id="251GQUwDpswAqtSM6YWG-13" value="&amp;lt;&amp;lt;instantlate&amp;gt;&amp;gt;" style="endArrow=open;endSize=12;dashed=1;html=1;rounded=0;exitX=0.318;exitY=-0.033;exitDx=0;exitDy=0;exitPerimeter=0;entryX=0.473;entryY=1.031;entryDx=0;entryDy=0;entryPerimeter=0;" parent="1" edge="1" target="6WlqW3tdLEVUMyMOWgQi-29" source="6WlqW3tdLEVUMyMOWgQi-9">
          <mxGeometry width="160" relative="1" as="geometry">
            <mxPoint x="720" y="310" as="sourcePoint" />
            <mxPoint x="720" y="440" as="targetPoint" />
          </mxGeometry>
        </mxCell>
        <mxCell id="251GQUwDpswAqtSM6YWG-14" value="" style="endArrow=block;endSize=16;endFill=0;html=1;rounded=0;entryX=0.5;entryY=0;entryDx=0;entryDy=0;" parent="1" target="6WlqW3tdLEVUMyMOWgQi-13" edge="1">
          <mxGeometry width="160" relative="1" as="geometry">
            <mxPoint x="331" y="500" as="sourcePoint" />
            <mxPoint x="510" y="490" as="targetPoint" />
            <Array as="points">
              <mxPoint x="331" y="540" />
              <mxPoint x="390" y="540" />
            </Array>
          </mxGeometry>
        </mxCell>
        <mxCell id="251GQUwDpswAqtSM6YWG-15" value="" style="endArrow=none;html=1;rounded=0;" parent="1" edge="1">
          <mxGeometry width="50" height="50" relative="1" as="geometry">
            <mxPoint x="160" y="540" as="sourcePoint" />
            <mxPoint x="720" y="540" as="targetPoint" />
          </mxGeometry>
        </mxCell>
        <mxCell id="251GQUwDpswAqtSM6YWG-16" value="" style="endArrow=none;html=1;rounded=0;entryX=0.659;entryY=1.033;entryDx=0;entryDy=0;entryPerimeter=0;" parent="1" edge="1">
          <mxGeometry width="50" height="50" relative="1" as="geometry">
            <mxPoint x="160" y="540" as="sourcePoint" />
            <mxPoint x="160.62" y="499.85800000000006" as="targetPoint" />
          </mxGeometry>
        </mxCell>
        <mxCell id="251GQUwDpswAqtSM6YWG-18" value="" style="endArrow=none;html=1;rounded=0;entryX=0.443;entryY=0.984;entryDx=0;entryDy=0;entryPerimeter=0;" parent="1" target="251GQUwDpswAqtSM6YWG-9" edge="1">
          <mxGeometry width="50" height="50" relative="1" as="geometry">
            <mxPoint x="520" y="540" as="sourcePoint" />
            <mxPoint x="520" y="501" as="targetPoint" />
          </mxGeometry>
        </mxCell>
        <mxCell id="251GQUwDpswAqtSM6YWG-19" value="" style="endArrow=none;html=1;rounded=0;entryX=0.657;entryY=1.063;entryDx=0;entryDy=0;entryPerimeter=0;" parent="1" edge="1">
          <mxGeometry width="50" height="50" relative="1" as="geometry">
            <mxPoint x="720" y="540" as="sourcePoint" />
            <mxPoint x="720" y="500" as="targetPoint" />
          </mxGeometry>
        </mxCell>
        <mxCell id="251GQUwDpswAqtSM6YWG-10" value="&amp;lt;&amp;lt;instantlate&amp;gt;&amp;gt;" style="endArrow=open;endSize=12;dashed=1;html=1;rounded=0;entryX=0.578;entryY=1.154;entryDx=0;entryDy=0;entryPerimeter=0;" parent="1" target="6WlqW3tdLEVUMyMOWgQi-8" edge="1">
          <mxGeometry width="160" relative="1" as="geometry">
            <mxPoint x="172" y="440" as="sourcePoint" />
            <mxPoint x="360" y="390" as="targetPoint" />
          </mxGeometry>
        </mxCell>
      </root>
    </mxGraphModel>
  </diagram>
</mxfile>
